<svg width="20" height="16" viewBox="0 0 20 16" fill="none" xmlns="http://www.w3.org/2000/svg">
<path fill-rule="evenodd" clip-rule="evenodd" d="M2.45483 1.84238L7.85796 7.24785C9.0364 8.42402 10.9627 8.42504 12.1421 7.24785L17.5453 1.84238C17.558 1.82968 17.5679 1.81432 17.574 1.7974C17.5802 1.78048 17.5826 1.7624 17.581 1.74446C17.5794 1.72651 17.5739 1.70913 17.5649 1.69356C17.5558 1.67798 17.5434 1.66459 17.5286 1.65433C16.9775 1.27 16.307 1.04214 15.5848 1.04214H4.41538C3.69307 1.04214 3.02257 1.27004 2.47147 1.65433C2.45667 1.66459 2.4443 1.67798 2.43524 1.69356C2.42619 1.70913 2.42067 1.72651 2.41908 1.74446C2.41749 1.7624 2.41987 1.78048 2.42605 1.7974C2.43223 1.81432 2.44206 1.82968 2.45483 1.84238ZM1.01093 4.44656C1.01049 3.89733 1.14396 3.35628 1.39979 2.87027C1.40872 2.85314 1.42157 2.83835 1.43729 2.82712C1.45301 2.81588 1.47116 2.80852 1.49026 2.80562C1.50937 2.80272 1.52889 2.80436 1.54723 2.81043C1.56558 2.81649 1.58223 2.82679 1.59585 2.8405L6.93057 8.17523C8.61991 9.86703 11.3792 9.868 13.0696 8.17523L18.4043 2.8405C18.4179 2.82679 18.4346 2.81649 18.4529 2.81043C18.4712 2.80436 18.4908 2.80272 18.5099 2.80562C18.529 2.80852 18.5471 2.81588 18.5628 2.82712C18.5786 2.83835 18.5914 2.85314 18.6003 2.87027C18.8561 3.35629 18.9896 3.89733 18.9892 4.44656V11.5535C18.9892 13.4321 17.461 14.9579 15.5848 14.9579H4.41538C2.53913 14.9579 1.01093 13.4321 1.01093 11.5535V4.44656Z" fill="#D0D0D0"/>
</svg>
