<svg width="35" height="36" viewBox="0 0 35 36" fill="none" xmlns="http://www.w3.org/2000/svg">
<path fill-rule="evenodd" clip-rule="evenodd" d="M32.75 13.92L32.66 9.25L28.67 6.84L26.26 2.85L21.6 2.76L17.51 0.510002L13.43 2.76L8.76002 2.85L6.35002 6.84L2.36002 9.25L2.27002 13.92L0.0200195 18L2.27002 22.09L2.36002 26.75L6.35002 29.16L8.76002 33.15L13.43 33.24L17.51 35.49L21.6 33.24L26.26 33.15L28.67 29.16L32.66 26.75L32.75 22.09L35 18L32.75 13.92ZM17.5 26.05C16.73 26.05 16.1 25.42 16.1 24.65C16.1 23.88 16.73 23.25 17.5 23.25C18.27 23.25 18.9 23.88 18.9 24.65C18.9 25.42 18.27 26.05 17.5 26.05ZM18.9 20.56V21.3C18.9 22.07 18.27 22.7 17.5 22.7C16.73 22.7 16.1 22.07 16.1 21.3V20.56L15.68 11.48C15.59 9.44 19.41 9.45 19.32 11.48L18.9 20.56Z" fill="#FF4A4A"/>
</svg>
