<svg version="1.1" id="Layer_1" width="20" height="20" xmlns="http://www.w3.org/2000/svg" xmlns:xlink="http://www.w3.org/1999/xlink" x="0px" y="0px"
	 viewBox="0 0 20 20" style="enable-background:new 0 0 20 20;" xml:space="preserve">
<style type="text/css">
	.st0{fill:#B9B9B9;}
</style>
<g transform="matrix(1.33333 0 0 -1.33333 0 682.667)">
	<path class="st0" d="M7.5,499.2c-5,0-7.3,4.8-7.4,5c-0.1,0.2-0.1,0.3,0,0.5c0.1,0.2,2.4,5,7.4,5s7.3-4.8,7.4-5
		c0.1-0.2,0.1-0.3,0-0.5C14.8,504,12.5,499.2,7.5,499.2z M1.3,504.5c0.5-0.9,2.6-4.1,6.2-4.1s5.7,3.2,6.2,4.1
		c-0.5,0.9-2.6,4.1-6.2,4.1S1.8,505.4,1.3,504.5z"/>
	<path class="st0" d="M7.5,501.6c-1.6,0-2.9,1.3-2.9,2.9s1.3,2.9,2.9,2.9s2.9-1.3,2.9-2.9S9.1,501.6,7.5,501.6z M7.5,506.3
		c-1,0-1.8-0.8-1.8-1.8c0-1,0.8-1.8,1.8-1.8s1.8,0.8,1.8,1.8C9.3,505.5,8.5,506.3,7.5,506.3z"/>
</g>
</svg>
