<svg width="18" height="18" viewBox="0 0 18 18" fill="none" xmlns="http://www.w3.org/2000/svg">
<g clip-path="url(#clip0_6819_9680)">
<path d="M17.8657 8.38573C17.1411 6.81426 16.0798 5.42137 14.757 4.30573L17.031 2.03173L15.9697 0.969727L13.5 3.43723C12.133 2.64652 10.5791 2.23655 8.99997 2.24998C3.37496 2.24998 0.792715 6.94573 0.134214 8.38573C0.0458182 8.5787 6.10352e-05 8.78847 6.10352e-05 9.00073C6.10352e-05 9.21299 0.0458182 9.42275 0.134214 9.61573C0.858817 11.1872 1.92013 12.5801 3.24296 13.6957L0.969715 15.9697L2.03021 17.0302L4.49997 14.5627C5.86694 15.3534 7.42083 15.7634 8.99997 15.75C14.625 15.75 17.2072 11.0542 17.8657 9.61423C17.9539 9.42147 17.9996 9.21197 17.9996 8.99998C17.9996 8.78799 17.9539 8.57849 17.8657 8.38573ZM4.49997 8.99998C4.49854 8.17393 4.7249 7.36348 5.15416 6.65773C5.58341 5.95197 6.19894 5.37822 6.93309 4.99956C7.66724 4.6209 8.49157 4.45198 9.31548 4.51138C10.1394 4.57077 10.931 4.85618 11.6032 5.33623L10.5142 6.42523C10.057 6.14953 9.53383 6.00259 8.99997 5.99998C8.20432 5.99998 7.44125 6.31605 6.87864 6.87866C6.31604 7.44127 5.99997 8.20433 5.99997 8.99998C6.00258 9.53384 6.14952 10.0571 6.42522 10.5142L5.33622 11.6032C4.79244 10.8441 4.50001 9.93376 4.49997 8.99998ZM8.99997 13.5C8.06618 13.4999 7.15584 13.2075 6.39672 12.6637L7.48572 11.5747C7.94289 11.8504 8.4661 11.9974 8.99997 12C9.79562 12 10.5587 11.6839 11.1213 11.1213C11.6839 10.5587 12 9.79563 12 8.99998C11.9974 8.46611 11.8504 7.9429 11.5747 7.48573L12.6637 6.39673C13.1438 7.06897 13.4292 7.86055 13.4886 8.68446C13.548 9.50837 13.379 10.3327 13.0004 11.0669C12.6217 11.801 12.048 12.4165 11.3422 12.8458C10.6365 13.275 9.82601 13.5014 8.99997 13.5Z" fill="#D0D0D0"/>
</g>
<defs>
<clipPath id="clip0_6819_9680">
<rect width="18" height="18" fill="white"/>
</clipPath>
</defs>
</svg>
