<svg xmlns="http://www.w3.org/2000/svg" xmlns:xlink="http://www.w3.org/1999/xlink" preserveAspectRatio="xMidYMid" width="10.47" height="10.25" viewBox="0 0 10.47 10.25">
  <defs>
    <style>
      .cls-1 {
        fill: #fff;
        fill-rule: evenodd;
      }
    </style>
  </defs>
  <path d="M10.203,2.341 C9.490,1.637 8.775,0.936 8.058,0.237 C7.707,-0.106 7.348,-0.105 6.995,0.241 L5.821,1.392 C3.981,3.196 2.140,4.999 0.307,6.809 C0.151,6.963 0.041,7.214 0.034,7.433 C0.014,8.015 0.019,8.606 0.023,9.177 L0.025,9.504 C0.028,9.996 0.273,10.238 0.774,10.243 C1.019,10.246 1.261,10.245 1.505,10.245 L1.828,10.244 C1.928,10.244 2.027,10.245 2.127,10.248 C2.227,10.249 2.329,10.251 2.431,10.251 C2.577,10.251 2.724,10.248 2.871,10.234 C3.057,10.217 3.315,10.143 3.480,9.982 C5.351,8.163 7.214,6.336 9.077,4.509 L10.199,3.410 C10.376,3.235 10.464,3.059 10.464,2.873 C10.464,2.688 10.379,2.513 10.203,2.341 ZM7.457,4.266 L6.520,5.186 C5.283,6.398 4.047,7.610 2.814,8.825 C2.725,8.913 2.648,8.935 2.523,8.940 C2.326,8.935 2.128,8.934 1.927,8.934 C1.801,8.934 1.674,8.934 1.544,8.935 L1.327,8.935 L1.327,8.764 C1.327,8.373 1.326,7.993 1.328,7.641 C1.331,7.634 1.346,7.610 1.373,7.583 C2.871,6.112 4.371,4.643 5.871,3.174 L6.111,2.939 L7.457,4.266 ZM8.819,2.909 L8.457,3.252 L7.150,1.971 L7.516,1.625 L8.819,2.909 Z" class="cls-1"/>
</svg>
