<svg xmlns="http://www.w3.org/2000/svg" xmlns:xlink="http://www.w3.org/1999/xlink" preserveAspectRatio="xMidYMid" width="16.94" height="13.531" viewBox="0 0 16.94 13.531">
  <defs>
    <style>
      .cls-1 {
        fill: #bcbee2;
        fill-rule: evenodd;
      }
    </style>
  </defs>
  <path d="M16.943,7.153 C16.875,7.848 16.583,8.445 16.208,9.012 C15.639,9.874 14.987,10.661 14.212,11.336 C13.044,12.355 11.719,13.050 10.204,13.352 C9.225,13.547 8.242,13.572 7.257,13.439 C5.987,13.268 4.815,12.819 3.740,12.104 C2.692,11.407 1.819,10.523 1.077,9.499 C0.795,9.109 0.522,8.712 0.317,8.273 C0.036,7.671 -0.061,7.037 0.005,6.372 C0.073,5.677 0.363,5.079 0.738,4.512 C1.251,3.736 1.832,3.020 2.510,2.389 C3.580,1.395 4.800,0.673 6.202,0.294 C6.994,0.079 7.802,-0.020 8.239,-0.007 C10.645,0.036 12.440,0.710 14.010,2.014 C15.041,2.870 15.883,3.893 16.542,5.071 C16.901,5.714 17.016,6.415 16.943,7.153 ZM15.217,5.610 C14.875,5.037 14.473,4.508 14.028,4.014 C13.364,3.279 12.603,2.672 11.728,2.221 C10.857,1.773 9.933,1.523 8.959,1.463 C8.123,1.411 7.301,1.489 6.494,1.718 C5.400,2.028 4.441,2.590 3.590,3.350 C2.841,4.019 2.209,4.794 1.700,5.667 C1.279,6.392 1.282,7.144 1.707,7.865 C2.246,8.778 2.911,9.587 3.711,10.275 C5.088,11.458 6.672,12.071 8.600,12.075 C8.734,12.067 8.994,12.060 9.252,12.033 C10.061,11.951 10.835,11.734 11.570,11.378 C12.254,11.047 12.875,10.617 13.437,10.100 C14.158,9.436 14.776,8.681 15.263,7.824 C15.682,7.088 15.650,6.337 15.217,5.610 ZM8.474,10.375 C6.501,10.375 4.945,8.767 4.942,6.764 C4.938,4.772 6.485,3.147 8.474,3.145 C10.446,3.144 11.996,4.764 12.010,6.756 C11.998,8.758 10.455,10.375 8.474,10.375 ZM8.470,4.592 C7.294,4.600 6.349,5.568 6.355,6.764 C6.362,7.950 7.266,8.923 8.479,8.930 C9.650,8.937 10.602,7.944 10.597,6.756 C10.592,5.559 9.635,4.585 8.470,4.592 Z" class="cls-1"/>
</svg>
