<svg xmlns="http://www.w3.org/2000/svg" xmlns:xlink="http://www.w3.org/1999/xlink" preserveAspectRatio="xMidYMid" width="17" height="16.031" viewBox="0 0 17 16.031">
  <defs>
    <style>
      .cls-1 {
        fill: #bcbee2;
        fill-rule: evenodd;
      }
    </style>
  </defs>
  <path d="M2.878,12.756 C2.581,12.466 2.294,12.204 2.026,11.921 C1.343,11.197 0.736,10.409 0.295,9.504 C0.008,8.916 -0.073,8.280 -0.010,7.623 C0.057,6.920 0.348,6.314 0.725,5.740 C1.237,4.957 1.821,4.237 2.499,3.601 C3.569,2.597 4.792,1.872 6.196,1.488 C7.133,1.232 8.088,1.150 9.054,1.209 C10.135,1.275 11.165,1.545 12.145,2.017 C12.399,2.139 12.644,2.281 12.916,2.426 C12.931,2.404 12.948,2.370 12.973,2.344 C13.653,1.639 14.333,0.935 15.015,0.232 C15.286,-0.047 15.696,-0.081 15.979,0.150 C16.323,0.432 16.340,0.930 16.015,1.265 C15.394,1.907 14.771,2.547 14.149,3.187 C14.125,3.211 14.097,3.230 14.062,3.260 C14.119,3.314 14.165,3.358 14.212,3.400 C15.090,4.181 15.843,5.076 16.438,6.101 C17.173,7.368 17.166,8.652 16.432,9.919 C15.935,10.777 15.325,11.545 14.625,12.235 C13.517,13.325 12.237,14.112 10.749,14.520 C9.815,14.775 8.863,14.857 7.900,14.800 C6.554,14.719 5.302,14.318 4.134,13.631 C4.108,13.615 4.082,13.601 4.044,13.579 C4.023,13.605 4.004,13.634 3.981,13.658 C3.298,14.364 2.614,15.068 1.932,15.775 C1.723,15.991 1.480,16.078 1.189,16.001 C0.832,15.906 0.606,15.502 0.698,15.134 C0.736,14.981 0.815,14.858 0.923,14.748 C1.548,14.106 2.172,13.463 2.797,12.820 C2.820,12.796 2.849,12.778 2.878,12.756 ZM11.836,3.497 C11.826,3.490 11.816,3.483 11.806,3.477 C11.116,3.109 10.388,2.863 9.620,2.741 C8.766,2.605 7.916,2.619 7.068,2.784 C5.860,3.019 4.789,3.557 3.836,4.348 C2.975,5.062 2.266,5.918 1.697,6.890 C1.259,7.637 1.273,8.407 1.716,9.152 C2.188,9.948 2.757,10.665 3.430,11.290 C3.578,11.428 3.730,11.560 3.869,11.684 C4.421,11.122 4.966,10.566 5.517,10.004 C5.296,9.657 5.133,9.281 5.036,8.876 C4.939,8.468 4.905,8.054 4.950,7.635 C4.995,7.221 5.094,6.822 5.268,6.445 C5.444,6.065 5.673,5.720 5.964,5.426 C6.493,4.892 7.122,4.544 7.857,4.415 C8.780,4.254 9.633,4.448 10.418,4.961 C10.892,4.472 11.361,3.987 11.836,3.497 ZM13.094,4.316 C12.525,4.896 11.980,5.451 11.435,6.007 C12.414,7.581 12.078,9.450 10.976,10.587 C9.930,11.668 8.106,12.097 6.524,11.050 C6.053,11.537 5.581,12.024 5.110,12.511 C5.113,12.514 5.120,12.521 5.128,12.525 C5.769,12.873 6.448,13.108 7.160,13.242 C7.854,13.372 8.554,13.392 9.255,13.318 C10.052,13.234 10.816,13.021 11.543,12.671 C12.238,12.337 12.867,11.899 13.438,11.372 C14.167,10.698 14.793,9.930 15.281,9.055 C15.686,8.329 15.655,7.583 15.235,6.866 C14.907,6.308 14.532,5.784 14.092,5.313 C13.766,4.964 13.418,4.638 13.094,4.316 ZM7.568,9.968 C8.278,10.349 9.295,10.248 9.976,9.548 C10.624,8.880 10.767,7.843 10.377,7.065 C9.440,8.033 8.507,8.998 7.568,9.968 ZM9.359,6.033 C8.768,5.696 7.769,5.728 7.085,6.351 C6.359,7.010 6.144,8.056 6.553,8.923 C7.488,7.960 8.425,6.996 9.359,6.033 Z" class="cls-1"/>
</svg>
