<svg xmlns="http://www.w3.org/2000/svg" xmlns:xlink="http://www.w3.org/1999/xlink" preserveAspectRatio="xMidYMid" width="15" height="16" viewBox="0 0 15 16">
  <defs>
    <style>
      .cls-1 {
        fill: #798d97;
        fill-rule: evenodd;
      }
    </style>
  </defs>
  <path d="M13.902,14.880 C13.118,15.610 12.135,16.000 11.101,16.000 C11.033,16.000 10.964,15.998 10.895,15.995 L4.101,15.995 C3.017,16.059 1.921,15.639 1.116,14.877 C0.351,14.037 -0.049,12.913 0.003,11.783 L0.003,5.289 C-0.049,4.184 0.352,3.078 1.102,2.266 C1.757,1.645 2.578,1.269 3.447,1.184 L3.447,0.817 C3.441,0.384 3.786,0.023 4.216,0.017 C4.220,0.017 4.223,0.017 4.226,0.017 C4.618,0.017 4.950,0.312 5.001,0.707 L5.007,1.155 L10.002,1.155 L10.002,0.817 C9.990,0.387 10.330,0.022 10.760,0.010 C11.164,-0.009 11.510,0.298 11.556,0.711 L11.562,1.186 C12.446,1.270 13.277,1.656 13.926,2.286 C14.665,3.106 15.053,4.201 15.000,5.302 L15.000,11.852 C15.052,12.959 14.652,14.067 13.902,14.880 ZM3.543,14.400 C3.714,14.421 3.888,14.420 4.064,14.399 L10.908,14.397 C12.563,14.397 13.437,13.516 13.437,11.848 L13.437,6.937 L1.563,6.937 L1.561,11.823 C1.419,13.099 2.308,14.255 3.543,14.400 ZM13.439,5.291 C13.485,4.592 13.255,3.909 12.811,3.401 C12.472,3.079 12.034,2.863 11.562,2.792 L11.562,3.186 C11.569,3.619 11.226,3.981 10.797,3.988 C10.396,4.004 10.055,3.697 10.008,3.289 L10.002,2.748 L5.007,2.748 L5.007,3.186 C5.009,3.622 4.661,3.979 4.232,3.982 C3.866,3.985 3.504,3.688 3.454,3.292 L3.447,2.781 C2.373,2.920 1.542,3.871 1.547,5.017 C1.547,5.100 1.552,5.181 1.561,5.262 L1.561,5.341 L13.439,5.343 L13.439,5.291 ZM4.633,7.935 C5.164,7.935 5.599,8.366 5.599,8.892 C5.599,9.419 5.164,9.850 4.633,9.850 C4.102,9.850 3.668,9.419 3.668,8.892 C3.668,8.366 4.102,7.935 4.633,7.935 ZM4.633,10.791 C5.164,10.791 5.599,11.222 5.599,11.749 C5.599,12.275 5.164,12.706 4.633,12.706 C4.102,12.706 3.668,12.275 3.668,11.749 C3.668,11.222 4.102,10.791 4.633,10.791 ZM7.513,7.935 C8.044,7.935 8.478,8.366 8.478,8.892 C8.478,9.419 8.044,9.850 7.513,9.850 C6.982,9.850 6.547,9.419 6.547,8.892 C6.547,8.366 6.982,7.935 7.513,7.935 ZM7.513,10.791 C8.044,10.791 8.478,11.222 8.478,11.749 C8.478,12.275 8.044,12.706 7.513,12.706 C6.982,12.706 6.547,12.275 6.547,11.749 C6.547,11.222 6.982,10.791 7.513,10.791 ZM10.370,7.935 C10.901,7.935 11.335,8.366 11.335,8.892 C11.335,9.419 10.901,9.850 10.370,9.850 C9.839,9.850 9.405,9.419 9.405,8.892 C9.405,8.366 9.839,7.935 10.370,7.935 ZM10.370,10.791 C10.901,10.791 11.335,11.222 11.335,11.749 C11.335,12.275 10.901,12.706 10.370,12.706 C9.839,12.706 9.405,12.275 9.405,11.749 C9.405,11.222 9.839,10.791 10.370,10.791 Z" class="cls-1"/>
</svg>
