<svg xmlns="http://www.w3.org/2000/svg" xmlns:xlink="http://www.w3.org/1999/xlink" preserveAspectRatio="xMidYMid" width="12" height="14" viewBox="0 0 12 14">
  <defs>
    <style>
      .cls-1 {
        fill: #fff;
        fill-rule: evenodd;
      }
    </style>
  </defs>
  <path d="M11.381,3.494 C11.274,3.511 11.165,3.509 11.045,3.506 L11.045,11.488 C11.044,13.040 10.141,14.004 8.689,14.005 C7.701,14.006 6.713,14.007 5.725,14.007 C4.912,14.007 4.100,14.006 3.288,14.005 C1.877,14.003 0.966,13.030 0.967,11.526 L0.968,3.508 C0.863,3.511 0.769,3.510 0.676,3.500 C0.272,3.454 0.023,3.173 0.009,2.748 C0.003,2.559 0.065,2.382 0.185,2.249 C0.318,2.101 0.508,2.019 0.721,2.017 C1.332,2.009 1.946,2.009 2.557,2.010 L11.113,2.011 C11.222,2.009 11.282,2.009 11.340,2.015 C11.735,2.055 11.988,2.330 12.000,2.732 C12.012,3.140 11.775,3.432 11.381,3.494 ZM2.374,3.527 L2.374,11.491 C2.375,12.221 2.643,12.506 3.333,12.508 C4.874,12.512 6.418,12.512 7.960,12.509 L8.732,12.509 C9.340,12.508 9.636,12.193 9.636,11.547 L9.638,3.527 L2.374,3.527 ZM7.994,10.184 C7.993,10.908 7.662,11.000 7.519,11.006 C7.513,11.006 7.507,11.006 7.501,11.006 C7.372,11.006 7.261,10.948 7.178,10.835 C7.070,10.690 7.015,10.469 7.014,10.178 C7.013,9.044 7.012,7.911 7.012,6.778 L7.011,5.928 C7.011,5.820 7.011,5.747 7.016,5.674 C7.044,5.255 7.248,4.971 7.531,5.002 C7.814,5.036 7.985,5.296 7.990,5.697 C7.994,6.112 7.994,6.526 7.994,6.940 L7.993,7.825 L7.995,8.564 L7.994,10.184 ZM4.797,10.872 C4.716,10.961 4.618,11.007 4.511,11.007 C4.476,11.007 4.441,11.002 4.404,10.992 C4.250,10.949 3.992,10.796 3.993,10.245 C3.995,9.708 3.995,9.171 3.994,8.634 L3.994,7.373 C3.993,6.859 3.993,6.345 3.995,5.831 C3.995,5.545 4.055,5.315 4.167,5.169 C4.257,5.052 4.369,4.992 4.512,4.999 C4.746,5.011 4.997,5.236 4.997,5.829 C4.997,7.290 4.997,8.750 4.994,10.211 C4.994,10.497 4.923,10.732 4.797,10.872 ZM8.260,1.002 C8.016,1.004 7.773,1.004 7.530,1.004 C7.357,1.004 7.183,1.004 7.010,1.004 L6.491,1.003 L5.974,1.003 C5.579,1.004 4.183,1.004 3.789,1.002 C3.531,1.001 3.319,0.942 3.177,0.833 C3.059,0.741 2.998,0.620 3.003,0.484 C3.012,0.250 3.223,0.000 3.785,-0.001 C4.940,-0.003 7.096,-0.002 8.253,-0.000 C8.697,0.001 8.993,0.189 9.008,0.478 C9.014,0.612 8.953,0.738 8.833,0.832 C8.696,0.940 8.492,1.000 8.260,1.002 Z" class="cls-1"/>
</svg>
