<svg xmlns="http://www.w3.org/2000/svg" xmlns:xlink="http://www.w3.org/1999/xlink" preserveAspectRatio="xMidYMid" width="13.06" height="12.813" viewBox="0 0 13.06 12.813">
  <defs>
    <style>
      .cls-1 {
        fill: #fff;
        fill-rule: evenodd;
      }
    </style>
  </defs>
  <path d="M12.725,2.926 C11.834,2.046 10.940,1.170 10.044,0.297 C9.606,-0.132 9.157,-0.131 8.715,0.302 L7.248,1.740 C4.948,3.994 2.647,6.249 0.356,8.511 C0.161,8.704 0.024,9.018 0.015,9.292 C-0.010,10.019 -0.004,10.757 0.001,11.471 L0.004,11.880 C0.008,12.495 0.314,12.798 0.939,12.804 C1.245,12.808 1.548,12.806 1.853,12.806 L2.257,12.805 C2.382,12.805 2.506,12.807 2.630,12.810 C2.756,12.812 2.883,12.814 3.011,12.814 C3.193,12.814 3.377,12.810 3.561,12.793 C3.794,12.772 4.116,12.678 4.322,12.478 C6.660,10.203 8.989,7.920 11.318,5.636 L12.720,4.262 C12.942,4.043 13.051,3.824 13.051,3.592 C13.052,3.360 12.945,3.142 12.725,2.926 ZM9.294,5.333 L8.122,6.483 C6.576,7.998 5.031,9.512 3.490,11.032 C3.379,11.141 3.283,11.169 3.126,11.175 C2.880,11.169 2.633,11.167 2.381,11.167 C2.224,11.167 2.065,11.168 1.902,11.169 L1.631,11.169 L1.631,10.955 C1.630,10.466 1.630,9.992 1.632,9.551 C1.636,9.542 1.655,9.512 1.689,9.479 C3.561,7.640 5.436,5.804 7.310,3.968 L7.611,3.674 L9.294,5.333 ZM10.995,3.636 L10.543,4.066 L8.909,2.463 L9.367,2.031 L10.995,3.636 Z" class="cls-1"/>
</svg>
