<svg xmlns="http://www.w3.org/2000/svg" version="1.1" width="24" height="24"  xmlns:xlink="http://www.w3.org/1999/xlink" xmlns:svgjs="http://svgjs.com/svgjs" x="0" y="0" viewBox="0 0 32 32" style="enable-background:new 0 0 512 512" xml:space="preserve"><g><path d="M30 15H16c-.55 0-1 .45-1 1v10c0 .55.45 1 1 1h14c.55 0 1-.45 1-1V16c0-.55-.45-1-1-1zm-11 3h.5c.55 0 1 .45 1 1s-.45 1-1 1H19c-.55 0-1-.45-1-1s.45-1 1-1zm8 6h-8c-.55 0-1-.45-1-1s.45-1 1-1h8c.55 0 1 .45 1 1s-.45 1-1 1zm0-4h-4c-.55 0-1-.45-1-1s.45-1 1-1h4c.55 0 1 .45 1 1s-.45 1-1 1zM7.5 10c1.13 0 2.09-.76 2.4-1.8a4.485 4.485 0 0 1-2.78-3.17A2.498 2.498 0 0 0 7.5 10z" fill="#ffffff" data-original="#ffffff"/><path d="M13 27v-.5H4c-.55 0-1-.45-1-1s.45-1 1-1h9V22H4c-.55 0-1-.45-1-1s.45-1 1-1h9v-2.5H8c-.55 0-1-.45-1-1s.45-1 1-1h5V15c0-1.1.9-2 2-2h8V2c0-.55-.45-1-1-1H2c-.55 0-1 .45-1 1v28c0 .55.45 1 1 1h20c.55 0 1-.45 1-1v-1h-8c-1.1 0-2-.9-2-2zm3-22h4c.55 0 1 .45 1 1s-.45 1-1 1h-4c-.55 0-1-.45-1-1s.45-1 1-1zm-1 4h5c.55 0 1 .45 1 1s-.45 1-1 1h-5c-.55 0-1-.45-1-1s.45-1 1-1zM7.5 3c.22 0 .43.02.64.05.49.07.85.49.86.98a2.5 2.5 0 0 0 2.14 2.44c.49.07.86.49.86.99C12 9.98 9.98 12 7.5 12S3 9.98 3 7.5 5.02 3 7.5 3zM4 15.5h.5c.55 0 1 .45 1 1s-.45 1-1 1H4c-.55 0-1-.45-1-1s.45-1 1-1z" fill="#ffffff" data-original="#ffffff"/></g></svg>