<svg xmlns="http://www.w3.org/2000/svg" xmlns:xlink="http://www.w3.org/1999/xlink" preserveAspectRatio="xMidYMid" width="15.125" height="16.031" viewBox="0 0 15.125 16.031">
  <defs>
    <style>
      .cls-1 {
        fill: #fafcf9;
        fill-rule: evenodd;
      }
    </style>
  </defs>
  <path d="M9.907,15.556 C9.009,15.883 8.131,16.021 7.301,16.021 C5.287,16.021 3.554,15.209 2.491,14.304 C2.253,14.101 2.109,13.804 2.094,13.489 C2.079,13.177 2.195,12.871 2.410,12.649 L2.452,12.605 C2.837,12.209 3.455,12.160 3.893,12.497 C6.195,14.271 9.500,13.978 11.418,11.835 C13.341,9.687 13.351,6.311 11.439,4.148 C9.518,1.976 6.198,1.681 3.881,3.473 C3.447,3.809 2.825,3.766 2.437,3.368 C2.197,3.121 2.081,2.811 2.097,2.496 C2.114,2.182 2.260,1.886 2.499,1.687 C4.257,0.219 6.878,-0.352 9.185,0.232 C12.486,1.070 14.862,3.935 15.099,7.363 C15.360,11.152 13.371,14.291 9.907,15.556 ZM6.247,6.934 C6.060,6.753 5.953,6.499 5.954,6.236 C5.954,5.973 6.062,5.720 6.250,5.540 C6.642,5.163 7.218,5.176 7.576,5.544 L9.356,7.363 C9.558,7.570 9.668,7.843 9.668,8.134 C9.667,8.425 9.556,8.699 9.354,8.904 L7.566,10.720 C7.381,10.906 7.142,11.000 6.903,11.000 C6.673,11.000 6.443,10.914 6.262,10.741 C6.063,10.552 5.954,10.298 5.954,10.035 C5.953,9.772 6.059,9.517 6.246,9.337 L6.460,9.131 L0.933,9.131 C0.415,9.131 -0.006,8.702 -0.006,8.174 L-0.006,8.114 C-0.006,7.586 0.415,7.157 0.933,7.157 L6.477,7.157 L6.247,6.934 Z" class="cls-1"/>
</svg>
