<svg xmlns="http://www.w3.org/2000/svg" version="1.1"  width="24" height="24"  xmlns:xlink="http://www.w3.org/1999/xlink" xmlns:svgjs="http://svgjs.com/svgjs" x="0" y="0" viewBox="0 0 360 360" style="enable-background:new 0 0 512 512" xml:space="preserve"><g><path d="M180 30C97.158 30 30 97.158 30 180s67.158 150 150 150 150-67.158 150-150S262.842 30 180 30zm-93.833 95.833c10.792-18.692 28.358-28.75 39.233-22.467 10.875 6.275 10.942 26.517.15 45.2-10.783 18.692-28.35 28.75-39.225 22.467-10.875-6.275-10.942-26.516-.158-45.2zm39.233 130.8c-10.875 6.283-28.433-3.775-39.225-22.458-10.792-18.692-10.717-38.933.158-45.208 10.875-6.283 28.433 3.775 39.225 22.467 10.792 18.683 10.717 38.924-.158 45.199zm54.6 31.7c-21.575 0-39.067-10.175-39.067-22.725s17.492-22.725 39.067-22.725c21.583 0 39.075 10.175 39.075 22.725S201.583 288.333 180 288.333zm0-171.216c-21.575 0-39.067-10.175-39.067-22.725S158.425 71.667 180 71.667c21.583 0 39.075 10.175 39.075 22.725S201.583 117.117 180 117.117zm93.817 117.05c-10.792 18.692-28.342 28.75-39.217 22.475-10.867-6.275-10.925-26.508-.142-45.2 10.792-18.683 28.35-28.742 39.217-22.467s10.933 26.508.142 45.192zm-.134-63.125c-10.867 6.275-28.425-3.792-39.217-22.475-10.783-18.683-10.725-38.925.142-45.2 10.875-6.275 28.433 3.792 39.217 22.475 10.792 18.691 10.725 38.925-.142 45.2zM186.017 354.896a5 5 0 0 1-.171-9.997c3.826-.133 7.69-.401 11.487-.797 2.748-.295 5.205 1.708 5.491 4.454a4.999 4.999 0 0 1-4.454 5.491c-4.024.42-8.121.704-12.177.846a5.165 5.165 0 0 1-.176.003zm-23.689-.804c-.172 0-.345-.009-.52-.026-4.031-.417-8.1-.981-12.093-1.677a4.999 4.999 0 1 1 1.717-9.851c3.766.656 7.603 1.188 11.404 1.581a5 5 0 0 1-.508 9.973zm58.872-4.118a5.003 5.003 0 0 1-4.848-3.793 4.999 4.999 0 0 1 3.644-6.06 164.508 164.508 0 0 0 11.065-3.172 5 5 0 0 1 3.092 9.51 174.256 174.256 0 0 1-11.741 3.365c-.405.102-.811.15-1.212.15zm-93.639-3.215c-.51 0-1.029-.078-1.542-.244a173.552 173.552 0 0 1-11.497-4.178 5 5 0 0 1 3.746-9.272 163.943 163.943 0 0 0 10.832 3.936 5 5 0 0 1-1.539 9.758zm127.03-8.95a5 5 0 0 1-4.495-2.804 4.998 4.998 0 0 1 2.294-6.688 166.508 166.508 0 0 0 10.152-5.413 5 5 0 0 1 5.01 8.654 176.326 176.326 0 0 1-10.768 5.741 4.978 4.978 0 0 1-2.193.51zM95.069 332.3a4.983 4.983 0 0 1-2.497-.672 175.706 175.706 0 0 1-10.36-6.479 5 5 0 0 1 5.594-8.289 165.448 165.448 0 0 0 9.769 6.109 5 5 0 0 1-2.506 9.331zm189.619-13.346a5.002 5.002 0 0 1-3.085-8.938 166.574 166.574 0 0 0 8.815-7.406 5 5 0 0 1 6.696 7.428 176.893 176.893 0 0 1-9.347 7.854 4.985 4.985 0 0 1-3.079 1.062zM66.32 311.402a4.984 4.984 0 0 1-3.343-1.283 177.402 177.402 0 0 1-8.788-8.478 5 5 0 0 1 7.187-6.953 167.146 167.146 0 0 0 8.29 7.997 5 5 0 0 1-3.346 8.717zm243.916-17.135a5 5 0 0 1-3.826-8.215 167.413 167.413 0 0 0 7.098-9.073 5 5 0 0 1 8.086 5.882 176.527 176.527 0 0 1-7.525 9.62 4.993 4.993 0 0 1-3.833 1.786zM42.527 285.02a4.992 4.992 0 0 1-4.045-2.056 176.378 176.378 0 0 1-6.841-10.106 5 5 0 0 1 8.471-5.315 167.113 167.113 0 0 0 6.452 9.532 5 5 0 0 1-4.037 7.945zm287.606-20.205a5 5 0 0 1-4.41-7.352 165.557 165.557 0 0 0 5.059-10.354 5 5 0 0 1 9.133 4.073 175.14 175.14 0 0 1-5.365 10.983 4.998 4.998 0 0 1-4.417 2.65zM24.72 254.295a5.002 5.002 0 0 1-4.568-2.961 174.106 174.106 0 0 1-4.583-11.305 5 5 0 1 1 9.393-3.43 164.501 164.501 0 0 0 4.32 10.654 5 5 0 0 1-2.525 6.604 4.95 4.95 0 0 1-2.037.438zm318.746-22.445a5.001 5.001 0 0 1-4.811-6.375 164.86 164.86 0 0 0 2.775-11.172 4.996 4.996 0 0 1 5.926-3.857 4.999 4.999 0 0 1 3.857 5.926 175.078 175.078 0 0 1-2.943 11.852 5.001 5.001 0 0 1-4.804 3.626zM13.713 220.527a5.001 5.001 0 0 1-4.886-3.961 175.37 175.37 0 0 1-2.119-12.027 5 5 0 0 1 9.903-1.389c.53 3.783 1.202 7.597 1.997 11.336a5.001 5.001 0 0 1-4.895 6.041zm335.886-23.673a5 5 0 0 1-4.994-5.344c.262-3.803.395-7.675.395-11.51l-.001-.385a5 5 0 1 1 10 0l.001.347c0 4.101-.141 8.205-.418 12.235a5 5 0 0 1-4.983 4.657zM10 185.192a5 5 0 0 1-5-5v-.154c0-4.029.136-8.066.405-12.038a5.008 5.008 0 0 1 5.326-4.651 5 5 0 0 1 4.651 5.326A168.225 168.225 0 0 0 15 180v.192a5 5 0 0 1-5 5zm338.308-24.226a5.002 5.002 0 0 1-4.945-4.301 164.447 164.447 0 0 0-2.01-11.333 5 5 0 0 1 9.78-2.09 175.25 175.25 0 0 1 2.133 12.024 5 5 0 0 1-4.958 5.7zM13.643 149.853a5 5 0 0 1-4.898-6.029c.834-3.968 1.82-7.958 2.931-11.857a5 5 0 0 1 6.179-3.438 5 5 0 0 1 3.438 6.179 164.24 164.24 0 0 0-2.762 11.174 5.003 5.003 0 0 1-4.888 3.971zm326.025-23.346a5 5 0 0 1-4.694-3.281 164.704 164.704 0 0 0-4.333-10.648 5 5 0 0 1 2.517-6.608 5 5 0 0 1 6.608 2.517 174.55 174.55 0 0 1 4.597 11.299 5 5 0 0 1-4.695 6.721zM24.57 116.032A5 5 0 0 1 20.004 109a175.11 175.11 0 0 1 5.354-10.99 4.999 4.999 0 0 1 6.761-2.07 4.999 4.999 0 0 1 2.07 6.761 165.475 165.475 0 0 0-5.046 10.36 5.004 5.004 0 0 1-4.573 2.971zm299.456-21.394a4.997 4.997 0 0 1-4.238-2.34 165.898 165.898 0 0 0-6.46-9.524 5 5 0 0 1 8.074-5.899 175.658 175.658 0 0 1 6.853 10.101 4.999 4.999 0 0 1-1.573 6.894 4.964 4.964 0 0 1-2.656.768zM42.333 85.236a4.998 4.998 0 0 1-4.042-7.938 176.256 176.256 0 0 1 7.515-9.629 5 5 0 1 1 7.665 6.423 166.363 166.363 0 0 0-7.088 9.082 4.995 4.995 0 0 1-4.05 2.062zm259.75-18.539a4.986 4.986 0 0 1-3.591-1.521 165.93 165.93 0 0 0-8.297-7.986 5 5 0 1 1 6.68-7.442c3.02 2.71 5.98 5.56 8.799 8.47a5 5 0 0 1-3.591 8.479zm-235.99-7.892a5 5 0 0 1-3.352-8.711 177.05 177.05 0 0 1 9.338-7.864 5 5 0 0 1 6.172 7.868 166.794 166.794 0 0 0-8.808 7.417 4.98 4.98 0 0 1-3.35 1.29zm208.734-14.917a4.972 4.972 0 0 1-2.788-.853 165.296 165.296 0 0 0-9.775-6.098 5 5 0 0 1-1.835-6.829 4.996 4.996 0 0 1 6.829-1.835 176.42 176.42 0 0 1 10.367 6.467 5 5 0 0 1-2.798 9.148zM94.792 37.867a5 5 0 0 1-2.515-9.325 174.626 174.626 0 0 1 10.762-5.753 5 5 0 0 1 4.403 8.979 165.042 165.042 0 0 0-10.145 5.423 4.978 4.978 0 0 1-2.505.676zm148.635-10.639a4.988 4.988 0 0 1-1.864-.363c-3.554-1.43-7.2-2.75-10.839-3.924a5 5 0 0 1-3.224-6.293 5.001 5.001 0 0 1 6.294-3.223 174.751 174.751 0 0 1 11.501 4.163 5 5 0 0 1-1.868 9.64zm-116.218-3.87a5.002 5.002 0 0 1-1.55-9.755 173.79 173.79 0 0 1 11.738-3.379 4.998 4.998 0 0 1 6.063 3.638 4.998 4.998 0 0 1-3.637 6.063 164.334 164.334 0 0 0-11.061 3.184 4.972 4.972 0 0 1-1.553.249zm82.033-5.853a4.94 4.94 0 0 1-.86-.075 165.123 165.123 0 0 0-11.403-1.568 5.001 5.001 0 0 1-4.467-5.482 4.998 4.998 0 0 1 5.482-4.466c4.036.412 8.106.972 12.097 1.664a5 5 0 0 1-.849 9.927zm-47.291-1.558a5 5 0 0 1-.518-9.973c4.022-.424 8.119-.713 12.177-.859 2.748-.104 5.077 2.057 5.176 4.817a5 5 0 0 1-4.817 5.176c-3.829.138-7.693.411-11.487.811a5.012 5.012 0 0 1-.531.028z" fill="#ffffff" data-original="#ffffff"/></g></svg>