<svg xmlns="http://www.w3.org/2000/svg" xmlns:xlink="http://www.w3.org/1999/xlink" preserveAspectRatio="xMidYMid" width="26" height="28" viewBox="0 0 26 28">
  <defs>
    <style>
      .cls-1 {
        fill: #fff;
        fill-rule: evenodd;
      }
    </style>
  </defs>
  <path d="M19.246,27.987 C15.515,27.986 12.502,25.000 12.503,21.305 C12.505,17.653 15.532,14.645 19.215,14.637 C22.932,14.628 25.985,17.632 25.989,21.303 C25.994,24.994 22.974,27.987 19.246,27.987 ZM19.198,19.127 C19.406,19.080 19.651,19.093 19.857,19.156 C20.281,19.285 20.690,19.464 21.140,19.636 C21.306,19.212 21.456,18.774 21.647,18.355 C21.790,18.042 21.697,17.868 21.404,17.747 C21.008,17.585 20.615,17.419 20.202,17.246 C20.185,16.912 20.167,16.570 20.149,16.215 C19.560,16.215 19.027,16.215 18.476,16.215 C18.456,16.333 18.416,16.424 18.428,16.509 C18.517,17.100 18.311,17.442 17.751,17.771 C16.386,18.571 16.335,20.436 17.602,21.380 C17.985,21.665 18.447,21.845 18.873,22.074 C19.118,22.205 19.401,22.299 19.595,22.483 C19.731,22.612 19.826,22.881 19.791,23.060 C19.763,23.207 19.536,23.381 19.366,23.423 C19.123,23.483 18.833,23.494 18.596,23.419 C18.105,23.265 17.636,23.040 17.105,22.823 C16.969,23.192 16.852,23.604 16.669,23.983 C16.470,24.396 16.575,24.644 16.979,24.813 C17.133,24.878 17.275,25.008 17.433,25.025 C18.229,25.113 18.474,25.576 18.373,26.304 C18.369,26.330 18.411,26.362 18.438,26.401 C18.980,26.401 19.527,26.401 20.096,26.401 C20.110,26.229 20.144,26.098 20.126,25.976 C20.049,25.437 20.275,25.156 20.743,24.841 C21.201,24.534 21.607,23.998 21.793,23.477 C22.221,22.283 21.612,21.171 20.328,20.533 C19.894,20.318 19.442,20.135 19.025,19.892 C18.899,19.819 18.778,19.575 18.808,19.445 C18.838,19.312 19.044,19.161 19.198,19.127 ZM10.605,21.303 C10.605,22.073 10.714,22.825 10.911,23.548 C7.381,23.544 3.852,23.541 0.322,23.540 C0.248,23.540 0.174,23.525 0.006,23.506 C0.088,20.990 -0.338,18.465 0.883,16.106 C1.708,14.512 2.846,13.231 4.402,12.313 C4.697,12.139 4.913,12.154 5.213,12.325 C7.956,13.890 10.715,13.909 13.459,12.330 C13.776,12.147 14.006,12.124 14.323,12.314 C14.885,12.650 15.394,13.026 15.850,13.439 C12.772,14.746 10.607,17.781 10.605,21.303 ZM9.317,11.347 C6.188,11.340 3.595,8.767 3.599,5.671 C3.602,2.538 6.194,-0.011 9.370,-0.003 C12.517,0.005 15.088,2.558 15.080,5.666 C15.071,8.812 12.492,11.354 9.317,11.347 Z" class="cls-1"/>
</svg>
