<svg xmlns="http://www.w3.org/2000/svg" xmlns:xlink="http://www.w3.org/1999/xlink" preserveAspectRatio="xMidYMid" width="15" height="15.968" viewBox="0 0 15 15.968">
  <defs>
    <style>
      .cls-1 {
        fill: #a6b0bf;
        fill-rule: evenodd;
      }
    </style>
  </defs>
  <path d="M14.997,3.936 C15.026,4.255 14.907,4.566 14.633,4.883 L13.007,6.760 C10.581,9.563 8.154,12.366 5.716,15.159 C5.397,15.525 4.888,15.645 4.740,15.673 C4.521,15.714 4.301,15.740 4.083,15.761 C3.933,15.775 3.783,15.787 3.636,15.799 C3.491,15.809 3.348,15.821 3.205,15.835 L2.470,15.906 C2.203,15.934 1.938,15.958 1.669,15.981 C0.826,16.055 0.338,15.665 0.259,14.854 L0.256,14.828 C0.256,14.825 0.255,14.824 0.254,14.821 L0.209,14.358 C0.127,13.536 0.045,12.701 -0.003,11.872 C-0.023,11.505 0.120,11.087 0.363,10.805 C2.793,7.977 5.236,5.158 7.678,2.338 L9.235,0.540 C9.780,-0.088 10.435,-0.151 11.078,0.357 C12.211,1.249 13.342,2.145 14.470,3.045 C14.795,3.302 14.965,3.583 14.993,3.903 C14.993,3.908 14.990,3.913 14.991,3.918 C14.991,3.924 14.996,3.930 14.997,3.936 ZM2.338,12.045 C2.379,12.524 2.427,13.037 2.477,13.566 L2.478,13.587 L3.138,13.521 C3.432,13.493 3.722,13.467 4.011,13.447 C4.143,13.429 4.196,13.403 4.271,13.317 C5.905,11.419 7.545,9.525 9.185,7.630 L10.278,6.367 L8.491,4.944 L7.314,6.303 C5.656,8.216 3.998,10.130 2.343,12.046 L2.338,12.045 ZM10.890,5.457 L12.078,4.245 L10.362,2.878 L9.170,4.094 L10.890,5.457 Z" class="cls-1"/>
</svg>
