<svg xmlns="http://www.w3.org/2000/svg" xmlns:xlink="http://www.w3.org/1999/xlink" preserveAspectRatio="xMidYMid" width="21" height="24" viewBox="0 0 21 24">
  <defs>
    <style>
      .cls-1 {
        fill: #fff;
        fill-rule: evenodd;
      }
    </style>
  </defs>
  <path d="M20.871,18.033 C18.666,21.730 14.711,24.000 9.853,23.996 C6.074,23.869 2.649,21.957 0.196,18.238 C-0.038,17.883 -0.076,17.566 0.124,17.174 C1.317,14.844 3.172,13.436 5.703,12.949 C6.092,12.874 6.431,12.963 6.769,13.185 C9.242,14.811 11.720,14.801 14.217,13.213 C14.500,13.033 14.911,12.908 15.228,12.962 C17.837,13.408 19.720,14.878 20.915,17.278 C21.049,17.547 21.025,17.774 20.871,18.033 ZM10.457,12.461 C7.122,12.465 4.393,9.644 4.389,6.191 C4.386,2.808 7.152,0.002 10.492,0.001 C13.834,-0.000 16.604,2.802 16.603,6.184 C16.602,9.673 13.876,12.458 10.457,12.461 Z" class="cls-1"/>
</svg>
