<svg xmlns="http://www.w3.org/2000/svg" xmlns:xlink="http://www.w3.org/1999/xlink" preserveAspectRatio="xMidYMid" width="13" height="14" viewBox="0 0 13 14">
  <defs>
    <style>
      .cls-1 {
        fill: #798d97;
        fill-rule: evenodd;
      }
    </style>
  </defs>
  <path d="M9.995,9.931 C9.996,9.931 9.996,9.930 9.997,9.930 L8.994,8.925 C8.977,8.943 8.961,8.962 8.943,8.980 L8.943,8.980 C8.698,9.230 8.421,9.447 8.119,9.624 L8.069,9.654 C7.395,10.051 6.624,10.260 5.838,10.260 C3.405,10.260 1.426,8.277 1.426,5.839 C1.426,3.402 3.405,1.419 5.838,1.419 C8.320,1.419 10.330,3.484 10.247,5.990 C10.224,6.690 10.029,7.366 9.695,7.971 L10.732,9.010 C11.322,8.097 11.666,7.009 11.666,5.839 C11.666,2.614 9.056,-0.000 5.838,-0.000 C2.619,-0.000 0.010,2.614 0.010,5.839 C0.010,9.064 2.619,11.679 5.838,11.679 C6.914,11.679 7.921,11.386 8.786,10.877 L11.682,13.776 C11.830,13.925 12.025,14.000 12.220,14.000 C12.415,14.000 12.610,13.925 12.758,13.776 C13.056,13.479 13.056,12.996 12.758,12.698 L9.995,9.931 Z" class="cls-1"/>
</svg>
