<svg xmlns="http://www.w3.org/2000/svg" version="1.1" width="24" height="24" xmlns:xlink="http://www.w3.org/1999/xlink" xmlns:svgjs="http://svgjs.com/svgjs" x="0" y="0" viewBox="0 0 32 32" style="enable-background:new 0 0 512 512" xml:space="preserve" class=""><g><path d="M16 2C8.28 2 2 8.28 2 16s6.28 14 14 14 14-6.28 14-14S23.72 2 16 2zm0 24c-5.51 0-10-4.49-10-10S10.49 6 16 6s10 4.49 10 10-4.49 10-10 10z" fill="#ffffff" data-original="#ffffff"/><path d="M16 8c-4.41 0-8 3.59-8 8s3.59 8 8 8 8-3.59 8-8-3.59-8-8-8zm4.24 9.27-1.15.63c-.5.27-.91.68-1.19 1.19l-.63 1.15c-.26.46-.74.75-1.27.75s-1.01-.29-1.27-.75l-.63-1.15c-.28-.51-.69-.92-1.19-1.19l-1.15-.63c-.47-.25-.76-.74-.76-1.27s.29-1.02.76-1.27l1.15-.63c.5-.27.91-.68 1.19-1.19l.63-1.15c.26-.46.74-.75 1.27-.75s1.01.29 1.27.75l.63 1.15c.28.5.69.92 1.19 1.19l1.15.63c.47.25.76.74.76 1.27s-.29 1.02-.76 1.27z" fill="#ffffff" data-original="#ffffff"/></g></svg>