<svg xmlns="http://www.w3.org/2000/svg" version="1.1" xmlns:xlink="http://www.w3.org/1999/xlink" width="24" height="24" xmlns:svgjs="http://svgjs.com/svgjs" x="0" y="0" viewBox="0 0 56 57" xml:space="preserve" class=""><g><path d="M29 0v26l24.37-9.06A26 26 0 0 0 29 0zM17.85 55.93a24.83 24.83 0 0 0 15.58-.39c-5.926-4.902-7.185-13.491-2.915-19.887C34.785 29.256 43.2 27.126 50 30.72a24.53 24.53 0 0 0-1.18-6.49l-23 8.54z" fill="#ffffff" data-original="#ffffff"/><circle cx="38" cy="39" r="1" fill="#ffffff" data-original="#ffffff"/><path d="m16 55.28 7.7-22.56L.46 27.26C-1.813 39.128 4.729 50.923 16 55.28zM.93 25.31 24 30.74V7A24.86 24.86 0 0 0 .93 25.31zM43 31c-7.18 0-13 5.82-13 13s5.82 13 13 13 13-5.82 13-13a13 13 0 0 0-13-13zm-8 8a3 3 0 1 1 6 0 3 3 0 0 1-6 0zm2.71 11.71a1.004 1.004 0 1 1-1.42-1.42l12-12a1.004 1.004 0 1 1 1.42 1.42zM48 52a3 3 0 1 1 0-6 3 3 0 0 1 0 6z" fill="#ffffff" data-original="#ffffff"/><circle cx="48" cy="49" r="1" fill="#ffffff" data-original="#ffffff"/></g></svg>