<svg xmlns="http://www.w3.org/2000/svg" xmlns:xlink="http://www.w3.org/1999/xlink" preserveAspectRatio="xMidYMid" width="27" height="27" viewBox="0 0 27 27">
  <defs>
    <style>
      .cls-1 {
        fill: #fff;
        fill-rule: evenodd;
      }
    </style>
  </defs>
  <path d="M18.284,27.000 C13.498,26.994 9.604,23.079 9.605,18.274 C9.605,13.534 13.554,9.599 18.303,9.609 C23.103,9.618 27.001,13.523 26.997,18.317 C26.993,23.112 23.085,27.006 18.284,27.000 ZM18.115,15.967 C18.579,15.859 18.868,16.087 19.062,16.495 C19.107,16.590 19.224,16.709 19.314,16.713 C19.754,16.736 20.196,16.723 20.634,16.723 C20.664,15.851 20.220,15.079 19.422,14.666 C19.146,14.523 19.068,14.357 19.081,14.071 C19.101,13.651 19.086,13.229 19.086,12.771 C18.761,12.771 18.524,12.771 18.288,12.771 C18.041,12.771 17.794,12.771 17.524,12.771 C17.524,13.262 17.505,13.676 17.530,14.087 C17.549,14.383 17.443,14.532 17.180,14.673 C16.223,15.189 15.761,16.235 16.000,17.254 C16.246,18.308 17.050,18.970 18.228,19.087 C18.745,19.139 19.055,19.399 19.080,19.822 C19.103,20.242 18.903,20.541 18.501,20.645 C18.046,20.763 17.742,20.544 17.549,20.129 C17.506,20.034 17.390,19.914 17.302,19.910 C16.862,19.887 16.421,19.899 15.927,19.899 C16.015,20.836 16.382,21.521 17.160,21.932 C17.444,22.083 17.547,22.249 17.527,22.560 C17.502,22.968 17.521,23.378 17.521,23.812 C18.060,23.812 18.544,23.812 19.054,23.812 C19.066,23.669 19.093,23.544 19.083,23.423 C19.020,22.682 19.075,22.086 19.854,21.607 C20.671,21.104 20.874,20.013 20.540,19.119 C20.177,18.147 19.458,17.616 18.418,17.529 C17.884,17.484 17.584,17.249 17.527,16.834 C17.474,16.442 17.720,16.059 18.115,15.967 ZM12.834,9.087 C11.524,9.392 10.174,9.530 8.842,9.741 C8.834,9.700 8.826,9.659 8.819,9.618 C6.792,9.600 4.819,9.305 2.967,8.429 C2.065,8.002 1.243,7.462 0.643,6.640 C-0.194,5.491 -0.183,4.198 0.671,3.053 C1.309,2.198 2.158,1.602 3.122,1.196 C6.858,-0.374 10.616,-0.406 14.367,1.143 C15.304,1.530 16.132,2.101 16.769,2.910 C17.809,4.228 17.780,5.695 16.660,6.954 C15.637,8.105 14.293,8.747 12.834,9.087 ZM8.235,15.930 C8.152,16.971 8.072,17.977 7.986,19.061 C5.568,18.873 3.249,18.424 1.308,16.832 C0.147,15.880 -0.157,14.627 0.078,13.150 C2.441,15.163 5.274,15.748 8.235,15.930 ZM1.843,12.517 C0.975,11.933 0.264,11.193 0.087,10.119 C-0.002,9.579 0.072,9.013 0.072,8.435 C3.258,10.983 6.982,11.402 10.790,11.110 C10.171,12.114 9.554,13.127 8.921,14.129 C8.851,14.238 8.683,14.356 8.564,14.353 C6.176,14.287 3.873,13.883 1.843,12.517 ZM7.832,20.627 C8.231,20.652 8.341,20.811 8.462,21.155 C8.773,22.035 9.152,22.891 9.538,23.839 C9.208,23.839 8.867,23.844 8.527,23.838 C6.711,23.804 4.945,23.508 3.268,22.786 C2.932,22.641 2.605,22.472 2.290,22.288 C0.625,21.314 -0.309,19.958 0.089,17.897 C2.328,19.801 5.002,20.450 7.832,20.627 Z" class="cls-1"/>
</svg>
