<svg xmlns="http://www.w3.org/2000/svg" version="1.1"  width="24" height="24" xmlns:xlink="http://www.w3.org/1999/xlink" xmlns:svgjs="http://svgjs.com/svgjs" x="0" y="0" viewBox="0 0 512 512" style="enable-background:new 0 0 512 512" xml:space="preserve"><g><path d="M256 352c-46.869 0-85-38.131-85-85V147c0-46.869 38.131-85 85-85s85 38.131 85 85v120c0 46.869-38.131 85-85 85z" fill="#ffffff" data-original="#ffffff"/><path d="M396 192h-25v30h10v45c0 68.925-56.075 125-125 125s-125-56.075-125-125v-45h10v-30h-25c-8.284 0-15 6.716-15 15v60c0 85.467 69.532 155 155 155s155-69.533 155-155v-60c0-8.284-6.716-15-15-15zM308.5 482H271v-30.61c-4.949.399-9.95.611-15 .611s-10.051-.212-15-.611V482h-37.5c-8.284 0-15 6.716-15 15s6.716 15 15 15h105c8.284 0 15-6.716 15-15s-6.716-15-15-15z" fill="#ffffff" data-original="#ffffff"/><circle cx="377" cy="99.853" r="15" fill="#ffffff" data-original="#ffffff"/><path d="M419.427 157.28a14.95 14.95 0 0 1-10.606-4.393c-5.858-5.858-5.858-15.355 0-21.213 17.545-17.545 17.545-46.095 0-63.64-5.858-5.858-5.858-15.355 0-21.213 5.858-5.857 15.356-5.857 21.213 0 29.241 29.243 29.241 76.823 0 106.066a14.957 14.957 0 0 1-10.607 4.393z" fill="#ffffff" data-original="#ffffff"/><path d="M461.853 199.706a14.946 14.946 0 0 1-10.606-4.394c-5.858-5.858-5.858-15.355 0-21.213C471.078 154.267 482 127.9 482 99.853c0-28.046-10.922-54.414-30.754-74.246-5.858-5.857-5.858-15.355 0-21.213 5.857-5.858 15.355-5.858 21.213 0C497.957 29.892 512 63.793 512 99.853s-14.043 69.961-39.541 95.459a14.954 14.954 0 0 1-10.606 4.394z" fill="#ffffff" data-original="#ffffff"/><circle cx="135" cy="99.853" r="15" fill="#ffffff" data-original="#ffffff"/><path d="M92.573 157.28a14.946 14.946 0 0 1-10.606-4.394c-29.241-29.243-29.241-76.823 0-106.066 5.857-5.857 15.355-5.858 21.213 0s5.858 15.355 0 21.213c-17.545 17.545-17.545 46.095 0 63.64 5.858 5.858 5.858 15.355 0 21.213a14.956 14.956 0 0 1-10.607 4.394z" fill="#ffffff" data-original="#ffffff"/><path d="M50.148 199.706a14.946 14.946 0 0 1-10.606-4.394C14.043 169.814 0 135.913 0 99.853S14.043 29.892 39.541 4.394c5.858-5.858 15.356-5.857 21.213 0 5.858 5.858 5.858 15.355 0 21.213C40.922 45.439 30 71.806 30 99.853s10.922 54.415 30.754 74.247c5.858 5.857 5.858 15.355 0 21.213a14.957 14.957 0 0 1-10.606 4.393z" fill="#ffffff" data-original="#ffffff"/></g></svg>