<svg width="13" height="14" viewBox="0 0 13 14" fill="none" xmlns="http://www.w3.org/2000/svg">
<g clip-path="url(#clip0_6986_1019)">
<path d="M3.27522 3.12032L4.40256 3.73731C4.54729 3.81603 4.60061 3.9963 4.5219 4.14103C4.49397 4.19181 4.45334 4.23243 4.40256 4.26036L3.27522 4.87481C3.22444 4.90274 3.18381 4.94337 3.15588 4.99415L2.53889 6.12149C2.46018 6.26622 2.27991 6.31954 2.13518 6.24083C2.0844 6.2129 2.04377 6.17228 2.01584 6.12149L1.40139 4.99415C1.37346 4.94337 1.33283 4.90274 1.28205 4.87481L0.15471 4.26036C0.00998322 4.18165 -0.0433371 4.00138 0.0353738 3.85665C0.0633035 3.80587 0.103929 3.76524 0.15471 3.73731L1.28205 3.12032C1.33283 3.09239 1.37346 3.05177 1.40139 3.00099L2.01838 1.87618C2.09709 1.73145 2.27991 1.67813 2.42463 1.75938C2.47287 1.78731 2.5135 1.82794 2.54143 1.87618L3.15842 3.00099C3.18381 3.05177 3.22444 3.09239 3.27522 3.12032ZM11.6668 9.1379L12.7942 9.75489C12.9389 9.8336 12.9922 10.0139 12.9135 10.1586C12.8856 10.2094 12.8449 10.25 12.7942 10.2779L11.6668 10.8949C11.616 10.9229 11.5754 10.9635 11.5475 11.0143L10.9305 12.1416C10.8518 12.2863 10.669 12.3397 10.5242 12.2609C10.4735 12.233 10.4328 12.1924 10.4049 12.1416L9.79299 11.0117C9.76506 10.9609 9.72444 10.9203 9.67365 10.8924L8.54631 10.2754C8.40158 10.1967 8.34826 10.0139 8.42697 9.86915C8.4549 9.81837 8.49553 9.77774 8.54631 9.74981L9.67365 9.13282C9.72444 9.10489 9.76506 9.06427 9.79299 9.01349L10.41 7.88868C10.4887 7.74396 10.6715 7.69063 10.8162 7.76935C10.867 7.79728 10.9076 7.8379 10.9356 7.88868L11.5526 9.01603C11.5754 9.06935 11.616 9.10997 11.6668 9.1379ZM6.78674 1.83048L7.52561 2.23419C7.61955 2.28751 7.6551 2.40685 7.60432 2.50079C7.58654 2.5338 7.55862 2.55919 7.52561 2.5795L6.78674 2.98321C6.75373 3.00099 6.7258 3.02892 6.70803 3.06192L6.30432 3.80079C6.251 3.89474 6.13166 3.93028 6.03772 3.8795C6.00471 3.86173 5.97932 3.8338 5.95901 3.80079L5.5553 3.06192C5.53752 3.02892 5.50959 3.00099 5.47658 2.98321L4.73772 2.5795C4.64377 2.52872 4.60822 2.40938 4.65901 2.3129C4.67678 2.27989 4.70471 2.25196 4.73772 2.23419L5.47658 1.83048C5.50959 1.8127 5.53752 1.78477 5.5553 1.75177L5.95901 1.0129C6.01233 0.918955 6.13166 0.883408 6.22561 0.934189C6.25862 0.951962 6.28401 0.979892 6.30432 1.0129L6.70803 1.75177C6.7258 1.78477 6.75373 1.8127 6.78674 1.83048ZM12.7104 2.16817L11.6668 1.12462C11.2809 0.738681 10.6537 0.736142 10.2653 1.12208L0.959592 10.4303C0.573655 10.8162 0.571116 11.4434 0.959592 11.8318L2.00315 12.8754C2.38908 13.2613 3.01623 13.2639 3.40471 12.8754L12.7104 3.56974C13.0963 3.1838 13.0963 2.55665 12.7104 2.16817ZM9.08205 5.68731L8.14768 4.75294L10.9026 1.99552L11.8369 2.92989L9.08205 5.68731Z" fill="#FF5964"/>
</g>
<defs>
<clipPath id="clip0_6986_1019">
<rect width="13" height="13" fill="white" transform="translate(0 0.5)"/>
</clipPath>
</defs>
</svg>
