<svg width="15" height="15" viewBox="0 0 15 15" fill="none" xmlns="http://www.w3.org/2000/svg">
<path d="M3.77925 3.02344L5.08003 3.73536C5.24702 3.82618 5.30854 4.03418 5.21772 4.20118C5.1855 4.25977 5.13862 4.30664 5.08003 4.33887L3.77925 5.04786C3.72065 5.08008 3.67378 5.12696 3.64155 5.18555L2.92964 6.48633C2.83882 6.65332 2.63081 6.71485 2.46382 6.62403C2.40522 6.5918 2.35835 6.54493 2.32612 6.48633L1.61714 5.18555C1.58491 5.12696 1.53804 5.08008 1.47944 5.04786L0.178662 4.33887C0.0116693 4.24805 -0.0498541 4.04004 0.0409662 3.87305C0.0731928 3.81446 0.120068 3.76758 0.178662 3.73536L1.47944 3.02344C1.53804 2.99121 1.58491 2.94434 1.61714 2.88575L2.32905 1.58789C2.41987 1.4209 2.63081 1.35938 2.7978 1.45313C2.85347 1.48536 2.90034 1.53223 2.93257 1.58789L3.64448 2.88575C3.67378 2.94434 3.72065 2.99121 3.77925 3.02344ZM13.4619 9.9668L14.7626 10.6787C14.9296 10.7695 14.9912 10.9775 14.9003 11.1445C14.8681 11.2031 14.8212 11.25 14.7626 11.2822L13.4619 11.9941C13.4033 12.0264 13.3564 12.0732 13.3242 12.1318L12.6123 13.4326C12.5214 13.5996 12.3105 13.6611 12.1435 13.5703C12.0849 13.5381 12.038 13.4912 12.0058 13.4326L11.2998 12.1289C11.2675 12.0703 11.2207 12.0234 11.1621 11.9912L9.86128 11.2793C9.69429 11.1885 9.63276 10.9775 9.72358 10.8106C9.75581 10.752 9.80268 10.7051 9.86128 10.6729L11.1621 9.96094C11.2207 9.92871 11.2675 9.88184 11.2998 9.82325L12.0117 8.52539C12.1025 8.3584 12.3134 8.29688 12.4804 8.3877C12.539 8.41993 12.5859 8.4668 12.6181 8.52539L13.33 9.82618C13.3564 9.8877 13.4033 9.93457 13.4619 9.9668ZM7.83101 1.53516L8.68354 2.00098C8.79194 2.0625 8.83296 2.2002 8.77436 2.3086C8.75386 2.34668 8.72163 2.37598 8.68354 2.39942L7.83101 2.86524C7.79292 2.88575 7.76069 2.91797 7.74019 2.95606L7.27436 3.8086C7.21284 3.917 7.07515 3.95801 6.96675 3.89942C6.92866 3.87891 6.89936 3.84668 6.87593 3.8086L6.41011 2.95606C6.3896 2.91797 6.35737 2.88575 6.31929 2.86524L5.46675 2.39942C5.35835 2.34082 5.31733 2.20313 5.37593 2.0918C5.39643 2.05371 5.42866 2.02149 5.46675 2.00098L6.31929 1.53516C6.35737 1.51465 6.3896 1.48243 6.41011 1.44434L6.87593 0.5918C6.93745 0.483402 7.07515 0.442386 7.18354 0.50098C7.22163 0.521488 7.25093 0.553715 7.27436 0.5918L7.74019 1.44434C7.76069 1.48243 7.79292 1.51465 7.83101 1.53516ZM14.666 1.92481L13.4619 0.720707C13.0166 0.275394 12.2929 0.272465 11.8447 0.717777L1.10737 11.458C0.66206 11.9033 0.65913 12.627 1.10737 13.0752L2.31147 14.2793C2.75679 14.7246 3.48042 14.7275 3.92866 14.2793L14.666 3.542C15.1113 3.09668 15.1113 2.37305 14.666 1.92481ZM10.4794 5.98536L9.40132 4.90723L12.58 1.72559L13.6582 2.80371L10.4794 5.98536Z" fill="white"/>
</svg>
