<svg width="15" height="16" viewBox="0 0 15 16" fill="none" xmlns="http://www.w3.org/2000/svg">
<g clip-path="url(#clip0_6928_947)">
<path d="M3.77925 3.52344L5.08003 4.23536C5.24702 4.32618 5.30854 4.53418 5.21772 4.70118C5.1855 4.75977 5.13862 4.80664 5.08003 4.83887L3.77925 5.54786C3.72065 5.58008 3.67378 5.62696 3.64155 5.68555L2.92964 6.98633C2.83882 7.15332 2.63081 7.21485 2.46382 7.12403C2.40522 7.0918 2.35835 7.04493 2.32612 6.98633L1.61714 5.68555C1.58491 5.62696 1.53804 5.58008 1.47944 5.54786L0.178662 4.83887C0.0116693 4.74805 -0.0498541 4.54004 0.0409662 4.37305C0.0731928 4.31446 0.120068 4.26758 0.178662 4.23536L1.47944 3.52344C1.53804 3.49121 1.58491 3.44434 1.61714 3.38575L2.32905 2.08789C2.41987 1.9209 2.63081 1.85938 2.7978 1.95313C2.85347 1.98536 2.90034 2.03223 2.93257 2.08789L3.64448 3.38575C3.67378 3.44434 3.72065 3.49121 3.77925 3.52344ZM13.4619 10.4668L14.7626 11.1787C14.9296 11.2695 14.9912 11.4775 14.9003 11.6445C14.8681 11.7031 14.8212 11.75 14.7626 11.7822L13.4619 12.4941C13.4033 12.5264 13.3564 12.5732 13.3242 12.6318L12.6123 13.9326C12.5214 14.0996 12.3105 14.1611 12.1435 14.0703C12.0849 14.0381 12.038 13.9912 12.0058 13.9326L11.2998 12.6289C11.2675 12.5703 11.2207 12.5234 11.1621 12.4912L9.86128 11.7793C9.69429 11.6885 9.63276 11.4775 9.72358 11.3106C9.75581 11.252 9.80268 11.2051 9.86128 11.1729L11.1621 10.4609C11.2207 10.4287 11.2675 10.3818 11.2998 10.3232L12.0117 9.02539C12.1025 8.8584 12.3134 8.79688 12.4804 8.8877C12.539 8.91993 12.5859 8.9668 12.6181 9.02539L13.33 10.3262C13.3564 10.3877 13.4033 10.4346 13.4619 10.4668ZM7.83101 2.03516L8.68354 2.50098C8.79194 2.5625 8.83296 2.7002 8.77436 2.8086C8.75386 2.84668 8.72163 2.87598 8.68354 2.89942L7.83101 3.36524C7.79292 3.38575 7.76069 3.41797 7.74019 3.45606L7.27436 4.3086C7.21284 4.417 7.07515 4.45801 6.96675 4.39942C6.92866 4.37891 6.89936 4.34668 6.87593 4.3086L6.41011 3.45606C6.3896 3.41797 6.35737 3.38575 6.31929 3.36524L5.46675 2.89942C5.35835 2.84082 5.31733 2.70313 5.37593 2.5918C5.39643 2.55371 5.42866 2.52149 5.46675 2.50098L6.31929 2.03516C6.35737 2.01465 6.3896 1.98243 6.41011 1.94434L6.87593 1.0918C6.93745 0.983402 7.07515 0.942386 7.18354 1.00098C7.22163 1.02149 7.25093 1.05371 7.27436 1.0918L7.74019 1.94434C7.76069 1.98243 7.79292 2.01465 7.83101 2.03516ZM14.666 2.42481L13.4619 1.22071C13.0166 0.775394 12.2929 0.772465 11.8447 1.21778L1.10737 11.958C0.66206 12.4033 0.65913 13.127 1.10737 13.5752L2.31147 14.7793C2.75679 15.2246 3.48042 15.2275 3.92866 14.7793L14.666 4.042C15.1113 3.59668 15.1113 2.87305 14.666 2.42481ZM10.4794 6.48536L9.40132 5.40723L12.58 2.22559L13.6582 3.30371L10.4794 6.48536Z" fill="white"/>
</g>
<defs>
<clipPath id="clip0_6928_947">
<rect width="15" height="15" fill="white" transform="translate(0 0.5)"/>
</clipPath>
</defs>
</svg>
