<svg xmlns="http://www.w3.org/2000/svg" version="1.1" xmlns:xlink="http://www.w3.org/1999/xlink" x="0" y="0" viewBox="0 0 24 24" style="enable-background:new 0 0 512 512" xml:space="preserve"><g><g data-name="Layer 2"><path fill="#e63946" d="m20.14 8.75-.77 11.43a2.753 2.753 0 0 1-2.74 2.57H7.37a2.753 2.753 0 0 1-2.74-2.57L3.86 8.75zM15.112 5.75H8.888a1.751 1.751 0 0 1-1.661-2.303l.335-1.001A1.745 1.745 0 0 1 9.22 1.25h5.558a1.747 1.747 0 0 1 1.66 1.197l.333.999a1.75 1.75 0 0 1-1.66 2.304zm-5.891-3a.248.248 0 0 0-.237.17L8.65 3.921a.25.25 0 0 0 .239.329h6.224a.25.25 0 0 0 .238-.33l-.333-.999a.25.25 0 0 0-.238-.171z" opacity="1" data-original="#e63946"/><path fill="#edebea" d="M10 16.75a.75.75 0 0 1-.75-.75v-4a.75.75 0 0 1 1.5 0v4a.75.75 0 0 1-.75.75zM14 16.75a.75.75 0 0 1-.75-.75v-4a.75.75 0 0 1 1.5 0v4a.75.75 0 0 1-.75.75z" opacity="1" data-original="#edebea"/><path fill="#e63946" d="M20 4.25H4a1.75 1.75 0 0 0 0 3.5h16a1.75 1.75 0 0 0 0-3.5z" opacity="1" data-original="#e63946"/></g></g></svg>