<svg width="10" height="11" viewBox="0 0 10 11" fill="none" xmlns="http://www.w3.org/2000/svg">
<path d="M8.33245 4.94815L3.25059 10.03C3.07472 10.2059 2.84428 10.315 2.59564 10.3393L0.81881 10.503H0.752103C0.551982 10.503 0.357925 10.4242 0.218446 10.2787C0.060775 10.121 -0.0180607 9.89661 0.000132154 9.67223L0.163868 7.89539C0.188125 7.64676 0.297282 7.41631 0.473146 7.24045L5.54289 2.15858L8.33245 4.94815ZM9.50893 1.41268L9.07836 0.982111C8.42342 0.333233 7.3743 0.333233 6.71936 0.982111L6.1857 1.51577L8.97527 4.30534L9.50893 3.77168C10.1578 3.12887 10.1639 2.07975 9.52105 1.43087C9.52105 1.43087 9.51499 1.4248 9.50893 1.41874V1.41268Z" fill="#FF5964"/>
</svg>
