<svg width="24" height="26" viewBox="0 0 24 26" fill="none" xmlns="http://www.w3.org/2000/svg">
<path d="M6.9986 21.1791C6.98046 21.1791 6.96067 21.1758 6.94088 21.1708C4.95545 20.5657 2.80512 18.3956 2.33844 16.5272C2.31206 16.4217 2.37637 16.3162 2.48026 16.2898C2.5858 16.2634 2.69134 16.3277 2.71772 16.4316C3.14812 18.1548 5.216 20.2342 7.05466 20.7965C7.15855 20.8278 7.21627 20.9367 7.18494 21.0406C7.1602 21.1247 7.0827 21.1791 6.9986 21.1791Z" fill="#975500"/>
<path d="M7.94539 23.641C7.93054 23.641 7.9157 23.6393 7.90086 23.636C6.25843 23.2535 4.34886 22.0266 2.66355 20.2688C1.08708 18.6263 0.0663308 16.8784 0.000369698 15.7076C-0.00622641 15.6004 0.076225 15.5064 0.185061 15.5015C0.292248 15.4949 0.386242 15.5773 0.391189 15.6862C0.450554 16.7514 1.45316 18.4433 2.94553 19.9983C4.57972 21.7034 6.41839 22.889 7.98991 23.2551C8.09545 23.2798 8.16141 23.3854 8.13667 23.4909C8.11524 23.58 8.03443 23.641 7.94539 23.641Z" fill="#975500"/>
<path d="M16.3637 6.5062C16.2763 6.5062 16.1972 6.44849 16.1741 6.36109C15.8987 5.31562 14.6471 3.81502 13.5076 3.5215C13.4037 3.49512 13.3394 3.38793 13.3674 3.2824C13.3955 3.17686 13.501 3.1142 13.6065 3.14223C14.8895 3.47368 16.245 5.09135 16.5533 6.26215C16.5814 6.36604 16.5187 6.47322 16.4132 6.50125C16.3967 6.50455 16.3802 6.5062 16.3637 6.5062Z" fill="#975500"/>
<path d="M18.8322 6.85415C18.7448 6.85415 18.6657 6.79479 18.6426 6.70739C17.9088 3.81834 15.1648 1.56414 13.5982 1.28381C13.491 1.26403 13.4218 1.16344 13.4399 1.05625C13.4597 0.949066 13.5603 0.879808 13.6675 0.897947C15.3742 1.20466 18.2369 3.52811 19.0219 6.6101C19.0482 6.71564 18.9856 6.82117 18.88 6.84756C18.8635 6.85251 18.8487 6.85415 18.8322 6.85415Z" fill="#975500"/>
<path d="M13.9592 11.9875C14.2742 12.3354 14.5578 12.7922 14.4375 12.9126C14.3171 13.033 13.9477 12.8153 13.6657 12.5317C13.3837 12.2497 12.7093 15.2509 12.6433 15.4026C12.5938 15.5164 11.8089 16.4167 11.3983 17.2726C11.2614 17.5578 11.2812 18.4186 11.2301 18.4697C11.024 18.6759 10.7618 18.6544 10.1962 18.1548C9.63054 17.6551 9.33701 20.6316 10.0115 21.1016C11.1641 21.9063 13.4695 25.1037 16.5152 25.1037C20.0392 25.1037 23.3026 21.4281 23.3026 18.7303C23.3026 16.0325 22.5111 15.0101 22.5639 12.7493C22.6067 10.8348 24.0002 9.9213 24.0002 8.96487C24.0002 8.16016 22.8046 7.96393 22.4122 7.96393C21.7163 7.96393 19.932 8.85604 19.932 11.2042C19.932 12.1178 19.6715 12.9439 18.7365 12.9439C17.8015 12.9439 16.7576 11.661 16.1261 10.6601" fill="url(#paint0_linear_6891_1511)"/>
<path d="M23.9987 8.96486C23.9987 8.52788 23.6441 8.27063 23.2583 8.12552C23.7216 9.66074 21.3718 9.7267 21.3718 14.9573C21.3718 20.188 18.326 21.71 17.0645 21.9722C15.803 22.2328 13.5801 22.3086 11.8882 20.2325C11.3688 19.5944 10.6646 18.9018 9.88135 18.2471C9.5499 18.7995 9.47899 20.7305 10.0116 21.1015C11.1643 21.9063 13.4696 25.1037 16.5154 25.1037C20.0394 25.1037 23.3028 21.428 23.3028 18.7303C23.3028 16.0325 22.5113 15.0101 22.564 12.7493C22.6069 10.8348 23.9987 9.92129 23.9987 8.96486Z" fill="url(#paint1_linear_6891_1511)"/>
<path d="M10.1956 18.1547C9.62998 17.6551 8.29261 16.2304 7.42193 15.5328C6.55124 14.837 5.79104 14.8452 5.2683 15.6136C4.74556 16.3821 6.26926 17.731 6.6172 18.0789C7.14984 18.6115 9.33645 20.6316 10.0109 21.1032" fill="url(#paint2_linear_6891_1511)"/>
<path d="M12.6437 15.4026C12.5777 15.5543 12.1341 15.6598 11.2519 14.7001C10.5775 13.9663 8.77178 11.8572 7.70651 10.9008C6.64124 9.94439 5.81342 9.55193 5.11754 10.0532C4.42165 10.5545 4.81741 11.5967 5.59575 12.4674C6.55879 13.5442 7.66693 14.6424 8.72726 15.6978C9.55672 16.5223 11.435 18.2653 11.2288 18.4714" fill="url(#paint3_linear_6891_1511)"/>
<path d="M8.72854 15.6961C9.51183 16.4744 11.2268 18.069 11.245 18.4203C11.4923 18.0344 11.0405 16.8867 10.5623 16.4843C7.79849 14.1576 5.12872 10.4061 4.78902 10.5182C4.6439 11.0641 5.01164 11.8127 5.59539 12.4674C6.55842 13.5425 7.66657 14.6424 8.72854 15.6961Z" fill="url(#paint4_linear_6891_1511)"/>
<path d="M16.1246 10.6617C15.493 9.66072 12.904 6.44186 12.2741 5.52831C11.6425 4.61476 10.7949 4.61476 10.2079 5.02866C9.62081 5.44256 9.44601 6.26871 10.7685 8.0249C11.6029 9.13303 12.2955 10.1521 13.961 11.9891L15.897 11.8539L16.1246 10.6617Z" fill="url(#paint5_linear_6891_1511)"/>
<path d="M13.666 12.5316C13.384 12.2497 10.8824 9.28475 10.3168 8.64823C9.25645 7.45765 7.91249 4.90664 6.30964 6.04281C5.46698 6.63975 5.92377 7.50547 6.16287 7.85341C6.40198 8.20135 9.51205 11.7912 9.81712 12.0947C10.1222 12.3997 12.7095 15.2492 12.6452 15.4009" fill="url(#paint6_linear_6891_1511)"/>
<path d="M13.9594 11.9875C14.2628 12.3223 14.5349 12.756 14.4492 12.8961C15.4584 12.0848 13.3245 9.70037 12.1158 8.26903C11.1808 7.1609 10.9252 5.751 10.2557 4.99576C10.2392 5.00565 10.2244 5.0172 10.2079 5.02709C9.62081 5.44099 9.44601 6.26714 10.7685 8.02333C11.6013 9.13146 12.2955 10.1522 13.9594 11.9875Z" fill="url(#paint7_linear_6891_1511)"/>
<path d="M9.81583 12.0963C10.1209 12.4014 12.7082 15.2508 12.6439 15.4025C13.4437 14.3257 10.3435 11.1613 8.8429 9.56176C7.54182 8.17495 7.3192 6.96128 6.04945 6.28024C5.57783 6.8508 5.95216 7.54998 6.16158 7.85504C6.40069 8.20298 9.51241 11.7929 9.81583 12.0963Z" fill="url(#paint8_linear_6891_1511)"/>
<path d="M12.5861 15.467C12.4954 15.5231 12.3091 15.528 12.0205 15.3615C12.2349 15.5346 12.4328 15.6006 12.5861 15.467Z" fill="url(#paint9_linear_6891_1511)"/>
<path d="M22.5946 8.29043C23.2591 8.1717 23.3762 8.24756 23.2575 8.12553C22.9343 8.00515 22.588 7.96393 22.4099 7.96393C21.714 7.96393 19.9297 8.85604 19.9297 11.2042C19.9297 12.1178 19.6692 12.9439 18.7325 12.9439C18.3632 12.9439 17.9789 12.7444 17.6079 12.441C19.2503 14.2598 20.5382 12.5465 20.7345 11.3724C20.9307 10.1983 20.6454 8.64002 22.5946 8.29043Z" fill="url(#paint10_radial_6891_1511)"/>
<path d="M10.0064 5.20511C9.60076 5.66518 9.61395 6.48968 10.7666 8.02326C11.601 9.13139 12.2936 10.1505 13.9591 11.9875C14.2741 12.3354 14.5577 12.7922 14.4374 12.9126C14.716 11.0096 12.0067 9.13799 11.1261 7.70335C10.4286 6.56554 10.29 5.89439 10.0064 5.20511Z" fill="url(#paint11_linear_6891_1511)"/>
<path d="M9.81575 12.0963C10.1208 12.4014 12.7081 15.2509 12.6438 15.4026C13.2144 14.9953 12.8252 14.3604 11.943 13.4782C10.134 11.6692 7.61595 9.23859 6.60344 7.2367C6.5078 7.04706 6.3297 6.9069 6.12028 6.88051C5.57445 6.80961 5.98011 7.58958 6.16315 7.85507C6.40061 8.20301 9.51233 11.7929 9.81575 12.0963Z" fill="url(#paint12_linear_6891_1511)"/>
<path d="M5.59593 12.4673C6.55896 13.5441 7.66711 14.6424 8.72743 15.6977C9.55689 16.5222 11.4351 18.2652 11.229 18.4714C12.3932 17.4919 6.98606 13.9514 4.7879 10.5199C4.64444 11.0624 5.01217 11.8127 5.59593 12.4673Z" fill="url(#paint13_linear_6891_1511)"/>
<path d="M10.9916 18.6659C11.1021 18.6231 11.1598 18.5719 11.178 18.5159C10.9784 18.6692 10.7162 18.6148 10.1968 18.1547C9.63118 17.6551 8.29381 16.2304 7.42313 15.5328C7.04055 15.2278 6.67942 15.0579 6.34961 15.0282C6.82123 15.3234 6.60191 15.4289 7.65069 16.2337C8.21466 16.6657 10.2726 18.9479 10.9916 18.6659Z" fill="url(#paint14_linear_6891_1511)"/>
<path d="M9.62084 13.4452C10.3843 14.3752 11.8751 15.9105 12.5446 15.4867C12.3599 15.5493 11.9394 15.4471 11.2534 14.7001C10.5789 13.9663 8.77324 11.8572 7.70797 10.9008C6.84553 10.1257 6.13809 9.72174 5.53125 9.8619C7.29736 10.4424 8.89692 12.5663 9.62084 13.4452Z" fill="url(#paint15_linear_6891_1511)"/>
<path d="M10.447 9.44307C11.6656 10.7689 13.4746 13.399 14.3915 12.939C14.2414 12.9851 13.9182 12.7856 13.6659 12.5317C13.3839 12.2497 10.8823 9.28476 10.3167 8.64825C9.58124 7.82375 8.7122 6.34624 7.71289 5.89441C8.72045 6.68923 9.45921 8.36957 10.447 9.44307Z" fill="url(#paint16_linear_6891_1511)"/>
<path d="M17.6088 12.4426C17.6105 12.4426 17.6105 12.4426 17.6088 12.4426C17.0399 11.9776 16.5056 11.2669 16.123 10.6617C15.4931 9.66076 12.9041 6.4419 12.2742 5.52835C12.0813 5.24967 11.8702 5.05673 11.6509 4.93471C11.9444 5.35685 12.111 5.95874 12.7755 6.70409C13.8408 7.89962 15.2342 10.0532 15.7124 10.7936C16.189 11.5307 16.9608 13.0907 17.6088 12.4426Z" fill="url(#paint17_linear_6891_1511)"/>
<path d="M21.0974 23.0589C20.7016 22.0959 20.1228 21.5088 19.2868 22.0596C17.0062 23.5619 14.3825 23.054 11.0927 20.3958C8.15912 18.0228 6.64201 16.3277 5.21395 15.7142C4.87096 16.4942 6.28252 17.7458 6.61563 18.0789C7.14826 18.6115 9.33487 20.6316 10.0093 21.1032C11.162 21.9079 13.4673 25.1053 16.5131 25.1053C18.2165 25.1037 19.8557 24.2478 21.0974 23.0589Z" fill="url(#paint18_linear_6891_1511)"/>
<path d="M22.5623 12.7493C22.6052 10.8348 23.9986 9.92129 23.9986 8.96487C23.9986 8.68289 23.8519 8.47677 23.6441 8.32671C23.8981 9.07206 23.2929 9.73331 22.3892 10.8579C21.4097 12.0765 21.1936 13.968 21.8664 15.861C22.5409 17.7541 21.6917 20.3644 20.3213 21.1906C18.951 22.0168 17.1304 25.6495 11.9179 21.5451C11.9162 21.5435 11.9162 21.5435 11.9146 21.5418C11.5963 21.2467 11.2813 20.9845 10.9631 20.7866C8.76162 19.4229 7.50671 18.196 6.55852 17.1654C6.37218 16.9625 5.87087 16.1859 5.27393 16.4415C5.5724 17.1176 6.37548 17.8382 6.61624 18.0789C7.14887 18.6116 9.33548 20.6316 10.0099 21.1032C10.0973 21.1642 10.193 21.2401 10.2936 21.3275C10.32 21.3506 10.3463 21.3736 10.3727 21.3967C10.3793 21.4033 10.3876 21.4099 10.3942 21.4149C10.4106 21.4297 10.4288 21.4462 10.4453 21.461C10.4486 21.4643 10.4535 21.4676 10.4568 21.4726C11.1412 22.0943 12.0828 23.1232 13.2371 23.9263C13.2371 23.9263 13.2387 23.9263 13.2387 23.9279C13.3393 23.9989 13.4432 24.0681 13.5471 24.1341C13.5487 24.1357 13.5504 24.1357 13.552 24.1374C13.6559 24.2033 13.7615 24.2676 13.867 24.3287C13.8687 24.3287 13.8687 24.3303 13.8703 24.3303C14.6684 24.7887 15.554 25.1053 16.5104 25.1053C20.0344 25.1053 23.2978 21.4297 23.2978 18.7319C23.2978 16.0342 22.5112 15.0118 22.5623 12.7493Z" fill="url(#paint19_radial_6891_1511)"/>
<defs>
<linearGradient id="paint0_linear_6891_1511" x1="21.5895" y1="25.8016" x2="18.6857" y2="18.9983" gradientUnits="userSpaceOnUse">
<stop offset="0.00132565" stop-color="#FFCB4B"/>
<stop offset="1" stop-color="#FFD748"/>
</linearGradient>
<linearGradient id="paint1_linear_6891_1511" x1="22.1676" y1="21.0699" x2="16.077" y2="13.8047" gradientUnits="userSpaceOnUse">
<stop offset="0.00132565" stop-color="#FFCB4B"/>
<stop offset="1" stop-color="#FFD748"/>
</linearGradient>
<linearGradient id="paint2_linear_6891_1511" x1="5.88722" y1="16.233" x2="9.47629" y2="18.8759" gradientUnits="userSpaceOnUse">
<stop offset="0.00132565" stop-color="#FFCB4B"/>
<stop offset="1" stop-color="#FFD748"/>
</linearGradient>
<linearGradient id="paint3_linear_6891_1511" x1="4.58132" y1="9.23793" x2="10.8785" y2="15.8288" gradientUnits="userSpaceOnUse">
<stop offset="0.00132565" stop-color="#FFCB4B"/>
<stop offset="1" stop-color="#FFD748"/>
</linearGradient>
<linearGradient id="paint4_linear_6891_1511" x1="9.41517" y1="13.1517" x2="7.33355" y2="15.1127" gradientUnits="userSpaceOnUse">
<stop stop-color="#FFBC47" stop-opacity="0"/>
<stop offset="1" stop-color="#FFA754"/>
</linearGradient>
<linearGradient id="paint5_linear_6891_1511" x1="11.3828" y1="6.12837" x2="15.0371" y2="11.8709" gradientUnits="userSpaceOnUse">
<stop offset="0.00132565" stop-color="#FFCB4B"/>
<stop offset="1" stop-color="#FFD748"/>
</linearGradient>
<linearGradient id="paint6_linear_6891_1511" x1="7.61063" y1="7.08233" x2="12.57" y2="13.782" gradientUnits="userSpaceOnUse">
<stop offset="0.00132565" stop-color="#FFCB4B"/>
<stop offset="1" stop-color="#FFD748"/>
</linearGradient>
<linearGradient id="paint7_linear_6891_1511" x1="13.5089" y1="7.89083" x2="10.3766" y2="10.7186" gradientUnits="userSpaceOnUse">
<stop stop-color="#FFBC47" stop-opacity="0"/>
<stop offset="1" stop-color="#FFA754"/>
</linearGradient>
<linearGradient id="paint8_linear_6891_1511" x1="10.6281" y1="9.90533" x2="6.32121" y2="13.054" gradientUnits="userSpaceOnUse">
<stop stop-color="#FFBC47" stop-opacity="0"/>
<stop offset="1" stop-color="#FFA754"/>
</linearGradient>
<linearGradient id="paint9_linear_6891_1511" x1="13.8364" y1="14.2941" x2="9.52949" y2="17.4427" gradientUnits="userSpaceOnUse">
<stop stop-color="#FFBC47" stop-opacity="0"/>
<stop offset="1" stop-color="#FFA754"/>
</linearGradient>
<radialGradient id="paint10_radial_6891_1511" cx="0" cy="0" r="1" gradientUnits="userSpaceOnUse" gradientTransform="translate(19.4866 9.18234) scale(5.1706 5.17053)">
<stop stop-color="#FFBC47" stop-opacity="0"/>
<stop offset="1" stop-color="#FFA754"/>
</radialGradient>
<linearGradient id="paint11_linear_6891_1511" x1="14.0818" y1="7.33542" x2="11.4064" y2="9.81516" gradientUnits="userSpaceOnUse">
<stop offset="0.3118" stop-color="#FFBC47" stop-opacity="0"/>
<stop offset="1" stop-color="#FF8900"/>
</linearGradient>
<linearGradient id="paint12_linear_6891_1511" x1="12.0337" y1="8.67945" x2="8.50987" y2="11.8553" gradientUnits="userSpaceOnUse">
<stop offset="0.3118" stop-color="#FFBC47" stop-opacity="0"/>
<stop offset="1" stop-color="#FF8900"/>
</linearGradient>
<linearGradient id="paint13_linear_6891_1511" x1="10.8428" y1="12.1144" x2="6.49242" y2="15.7688" gradientUnits="userSpaceOnUse">
<stop offset="0.3118" stop-color="#FFBC47" stop-opacity="0"/>
<stop offset="1" stop-color="#FF8900"/>
</linearGradient>
<linearGradient id="paint14_linear_6891_1511" x1="6.0959" y1="14.769" x2="11.1532" y2="18.8802" gradientUnits="userSpaceOnUse">
<stop stop-color="#FFBC47" stop-opacity="0"/>
<stop offset="1" stop-color="#FFBC47"/>
</linearGradient>
<linearGradient id="paint15_linear_6891_1511" x1="7.06345" y1="9.67324" x2="11.0114" y2="15.6768" gradientUnits="userSpaceOnUse">
<stop stop-color="#FFBC47" stop-opacity="0"/>
<stop offset="1" stop-color="#FFBC47"/>
</linearGradient>
<linearGradient id="paint16_linear_6891_1511" x1="10.1559" y1="10.1021" x2="11.2653" y2="9.25377" gradientUnits="userSpaceOnUse">
<stop stop-color="#FFBC47" stop-opacity="0"/>
<stop offset="1" stop-color="#FFA754"/>
</linearGradient>
<linearGradient id="paint17_linear_6891_1511" x1="15.6304" y1="13.4537" x2="14.1513" y2="6.40607" gradientUnits="userSpaceOnUse">
<stop stop-color="#FFBC47" stop-opacity="0"/>
<stop offset="1" stop-color="#FFBC47"/>
</linearGradient>
<linearGradient id="paint18_linear_6891_1511" x1="12.253" y1="20.2175" x2="10.0343" y2="22.2568" gradientUnits="userSpaceOnUse">
<stop offset="0.3118" stop-color="#FFBC47" stop-opacity="0"/>
<stop offset="1" stop-color="#FF8900"/>
</linearGradient>
<radialGradient id="paint19_radial_6891_1511" cx="0" cy="0" r="1" gradientUnits="userSpaceOnUse" gradientTransform="translate(13.7231 13.4781) rotate(48.1397) scale(14.9872 13.6037)">
<stop offset="0.6134" stop-color="#FFBC47" stop-opacity="0"/>
<stop offset="1" stop-color="#FF8900"/>
</radialGradient>
</defs>
</svg>
