<svg width="5" height="8" viewBox="0 0 5 8" fill="none" xmlns="http://www.w3.org/2000/svg">
<path d="M4.77391 3.43188C4.73422 3.39245 4.69034 3.35747 4.64305 3.32756L1.54232 0.226968C1.39698 0.081649 1.19986 1.70642e-05 0.994339 3.05192e-05C0.788813 4.39743e-05 0.591711 0.0817017 0.446391 0.22704C0.301072 0.372378 0.21944 0.569491 0.219454 0.775017C0.219467 0.980543 0.301125 1.17765 0.446463 1.32296L3.117 3.99322L0.432975 6.67753C0.287694 6.8228 0.206068 7.01982 0.206055 7.22527C0.206048 7.32699 0.226078 7.42772 0.265001 7.52171C0.303923 7.61569 0.360977 7.70109 0.432903 7.77303C0.50483 7.84496 0.590221 7.90203 0.684201 7.94096C0.778181 7.9799 0.878909 7.99994 0.980636 7.99995C1.18608 7.99996 1.38312 7.91836 1.5284 7.7731L4.64305 4.65888C4.69034 4.62898 4.73422 4.594 4.77391 4.55456C4.84747 4.48106 4.9054 4.39344 4.94421 4.29697C4.98303 4.2005 5.00192 4.09718 4.99977 3.99322C5.00201 3.88925 4.98315 3.7859 4.94433 3.68942C4.90551 3.59294 4.84754 3.50533 4.77391 3.43188Z" fill="#FF5964"/>
</svg>
