<svg width="12" height="15" viewBox="0 0 12 15" fill="none" xmlns="http://www.w3.org/2000/svg">
<g clip-path="url(#clip0_6891_1543)">
<path d="M10.12 9.16999C9.68 9.16999 9.33 9.51999 9.33 9.95999V12.63C9.33 12.77 9.27 12.91 9.17 13.01C9.07 13.11 8.93 13.17 8.79 13.17H2.12C1.97 13.17 1.84 13.11 1.74 13.01C1.64 12.91 1.58 12.77 1.58 12.63V5.95999C1.58 5.81999 1.64 5.67999 1.74 5.57999C1.84 5.47999 1.98 5.41999 2.12 5.41999H4.79C5.23 5.41999 5.58 5.05999 5.58 4.62999C5.58 4.19999 5.22 3.83999 4.79 3.83999H2.12C1.55 3.83999 1.02 4.05999 0.62 4.45999C0.22 4.85999 0 5.38999 0 5.95999V12.63C0 13.2 0.22 13.73 0.62 14.13C1.02 14.53 1.56 14.75 2.12 14.75H8.79C9.36 14.75 9.89 14.53 10.29 14.13C10.69 13.73 10.91 13.2 10.91 12.63V9.95999C10.91 9.51999 10.55 9.16999 10.12 9.16999Z" fill="#FF5964"/>
<path d="M12.06 2.77999V2.74999L12 2.71999C11.85 2.57999 11.66 2.50999 11.46 2.50999H7.46C7.02 2.50999 6.67 2.86999 6.67 3.29999C6.67 3.72999 7.02 4.08999 7.46 4.08999H9.55L4.24 9.39999C4.09 9.54999 4.01 9.74999 4.01 9.95999C4.01 10.17 4.09 10.37 4.24 10.52C4.39 10.67 4.59 10.75 4.8 10.75C5.01 10.75 5.21 10.67 5.36 10.52L10.67 5.19999V7.28999C10.67 7.72999 11.03 8.07999 11.46 8.07999C11.89 8.07999 12.25 7.72999 12.25 7.28999V3.28999C12.25 3.10999 12.18 2.92999 12.06 2.77999Z" fill="#FF5964"/>
</g>
<defs>
<clipPath id="clip0_6891_1543">
<rect width="12" height="14" fill="white" transform="translate(0 0.5)"/>
</clipPath>
</defs>
</svg>
