<svg width="105" height="35" viewBox="0 0 105 35" fill="none" xmlns="http://www.w3.org/2000/svg">
<g clip-path="url(#clip0_6819_9613)">
<path d="M17.4365 34.4339C26.8662 34.4339 34.5104 26.7896 34.5104 17.3599C34.5104 7.93024 26.8662 0.285965 17.4365 0.285965C8.00677 0.285965 0.362488 7.93024 0.362488 17.3599C0.362488 26.7896 8.00677 34.4339 17.4365 34.4339Z" fill="url(#paint0_linear_6819_9613)"/>
<path d="M62.3478 9.39024L59.001 21.9053L54.6531 9.39024H51.2106L46.8111 21.9053L43.5175 9.39024H39.2683L44.83 29.0531H48.7237L52.9304 16.3284L57.0838 29.0531H60.979L66.597 9.39024H62.3478Z" fill="#00182D"/>
<path d="M76.1922 15.6402C75.0832 14.9915 73.8541 14.6633 72.5385 14.6633C71.2229 14.6633 69.9939 14.9915 68.8849 15.6402C67.7774 16.2874 66.8871 17.1837 66.2384 18.3003C65.5898 19.4184 65.2616 20.652 65.2616 21.9661V34.5434H69.2981V28.4166C70.2278 28.9832 71.3171 29.2703 72.5385 29.2703C73.8526 29.2703 75.0832 28.9422 76.1922 28.2935C77.2997 27.6463 78.1945 26.7515 78.8523 25.6334C79.5101 24.5153 79.8443 23.2817 79.8443 21.9661C79.8443 20.6505 79.5101 19.4169 78.8523 18.2988C78.1945 17.1822 77.2997 16.2874 76.1922 15.6387V15.6402ZM74.9069 24.3831C74.2856 25.0303 73.5199 25.3448 72.5659 25.3448C71.6118 25.3448 70.8355 25.0288 70.1959 24.3801C69.5548 23.7299 69.2434 22.9414 69.2434 21.9676C69.2434 20.9938 69.5548 20.2038 70.1959 19.5536C70.8355 18.9049 71.6103 18.5889 72.5659 18.5889C73.5214 18.5889 74.2841 18.9034 74.9069 19.5506C75.5222 20.1917 75.8336 21.0044 75.8336 21.9661C75.8336 22.9277 75.5298 23.7314 74.9069 24.3816V24.3831Z" fill="#00182D"/>
<path d="M87.6803 9.39024L80.5462 29.0531H84.6662L86.1489 24.8784H93.0886L94.5713 29.0531H98.6913L91.5572 9.39024H87.6788H87.6803ZM91.7517 21.088H87.4858L89.6188 15.0978L91.7517 21.088Z" fill="#00182D"/>
<path d="M101.894 14.0861C102.538 14.0861 103.094 13.8567 103.545 13.4039C103.998 12.9512 104.227 12.3861 104.227 11.7252C104.227 11.0644 103.998 10.5266 103.545 10.0739C103.092 9.62117 102.536 9.39177 101.894 9.39177C101.251 9.39177 100.668 9.62117 100.215 10.0739C99.7624 10.5266 99.533 11.0826 99.533 11.7252C99.533 12.3679 99.7624 12.9512 100.215 13.4039C100.668 13.8567 101.233 14.0861 101.894 14.0861Z" fill="#00182D"/>
<path d="M103.899 15.4989H99.89V29.0531H103.899V15.4989Z" fill="#00182D"/>
<path d="M16.5614 9.09914H13.7869C13.1913 9.09914 12.7931 9.70927 13.0307 10.2552L21.3429 29.2912H21.3525L23.8444 24.195L17.4493 9.67876C17.2936 9.32713 16.9452 9.09914 16.5614 9.09914ZM16.152 13.9448L14.9751 11.2828H16.5277L17.7512 13.9448H16.152Z" fill="#D94769"/>
<path d="M20.5048 10.1781L21.4344 11.2426C21.4762 11.2908 21.5018 11.3486 21.5115 11.4112L21.717 12.8113C21.7427 12.9911 21.9081 13.1147 22.0879 13.089C22.1505 13.0794 22.2083 13.0537 22.2565 13.012L23.321 12.0823C23.3692 12.0406 23.427 12.0149 23.4896 12.0053L24.8881 11.8014C25.0679 11.7757 25.1915 11.6103 25.1658 11.4305C25.1562 11.3678 25.1305 11.31 25.0888 11.2619L24.1607 10.1941C24.119 10.146 24.0933 10.0882 24.0837 10.0256L23.8765 8.62869C23.8508 8.44886 23.6823 8.32362 23.5024 8.35252C23.4414 8.36216 23.3852 8.38945 23.337 8.42799L22.2709 9.35281C22.226 9.39616 22.1682 9.42185 22.1039 9.43149L20.7039 9.63701C20.524 9.6627 20.4004 9.82807 20.4261 10.0079C20.4357 10.0705 20.4614 10.1283 20.5032 10.1765L20.5048 10.1781Z" fill="#D94769"/>
<path d="M8.83686 11.7532L8.99581 12.8289C9.01508 12.967 9.14514 13.0634 9.28322 13.0425C9.33138 13.0345 9.37634 13.0152 9.41327 12.9831L10.2305 12.2654C10.2675 12.2333 10.3124 12.2124 10.3606 12.206L11.4363 12.047C11.5744 12.0277 11.6707 11.8977 11.6499 11.7596C11.6418 11.7114 11.6226 11.6665 11.5905 11.6296L10.8776 10.8091C10.8455 10.7722 10.8246 10.7272 10.8182 10.679L10.6592 9.60489C10.64 9.46681 10.5099 9.37047 10.3718 9.39135C10.3236 9.39938 10.2787 9.41864 10.2418 9.45076L9.4213 10.1636C9.38758 10.199 9.34262 10.2198 9.29446 10.2263L8.2187 10.3852C8.08062 10.4045 7.98589 10.5329 8.00516 10.671C8.01319 10.7192 8.03245 10.7641 8.06456 10.8011L8.77745 11.6215C8.80956 11.6585 8.83044 11.7034 8.83686 11.7516V11.7532Z" fill="#D94769"/>
<path d="M17.3594 5.70168L17.9679 6.40011C17.9952 6.43062 18.0129 6.47076 18.0193 6.5109L18.1542 7.4277C18.1734 7.54491 18.2826 7.62679 18.3998 7.61074C18.44 7.60431 18.4769 7.58665 18.5106 7.55936L19.209 6.95083C19.2395 6.92354 19.2797 6.90588 19.3198 6.89946L20.2366 6.76458C20.3522 6.74853 20.4357 6.63774 20.4197 6.51893C20.4132 6.47879 20.3956 6.43865 20.3683 6.40814L19.7598 5.7097C19.7325 5.6792 19.7148 5.63906 19.7084 5.59892L19.5735 4.68212C19.5542 4.56491 19.4451 4.48302 19.3279 4.49908C19.2877 4.5055 19.2508 4.52316 19.2171 4.55046L18.5186 5.15898C18.4881 5.18628 18.448 5.20394 18.4078 5.21036L17.491 5.34523C17.3738 5.3645 17.292 5.47368 17.308 5.59089C17.3144 5.63103 17.3321 5.66796 17.3594 5.70168Z" fill="#D94769"/>
<path d="M7.90401 14.5839L14.3505 29.2848L16.775 24.431L12.4816 14.5839H7.90401Z" fill="#D94769"/>
<path d="M22.0799 14.5839L25.2317 21.4751L28.65 14.5839H22.0799Z" fill="#D94769"/>
<path d="M15.8421 8.38142H13.0676C12.4719 8.38142 12.0738 8.99155 12.3114 9.53746L20.6236 28.5735H20.6332L23.1251 23.4773L16.73 8.96105C16.5743 8.60942 16.2258 8.38142 15.8421 8.38142ZM15.4327 13.2271L14.2558 10.565H15.8084L17.0319 13.2271H15.4327Z" fill="white"/>
<path d="M19.7855 9.45878L20.7151 10.5233C20.7568 10.5715 20.7825 10.6293 20.7922 10.6919L20.9977 12.092C21.0234 12.2718 21.1887 12.3954 21.3686 12.3697C21.4312 12.3601 21.489 12.3344 21.5372 12.2927L22.6017 11.363C22.6498 11.3213 22.7076 11.2956 22.7703 11.286L24.1687 11.082C24.3486 11.0564 24.4722 10.891 24.4465 10.7111C24.4369 10.6485 24.4112 10.5907 24.3694 10.5426L23.4414 9.47483C23.3997 9.42667 23.374 9.36887 23.3643 9.30625L23.1572 7.90937C23.1315 7.72955 22.9629 7.60431 22.7831 7.63321C22.7221 7.64284 22.6659 7.67014 22.6177 7.70867L21.5516 8.6335C21.5067 8.67685 21.4489 8.70254 21.3846 8.71217L19.9845 8.91769C19.8047 8.94338 19.6811 9.10876 19.7068 9.28859C19.7164 9.3512 19.7421 9.40901 19.7838 9.45717L19.7855 9.45878Z" fill="white"/>
<path d="M8.11915 11.0355L8.2781 12.1112C8.29737 12.2493 8.42742 12.3456 8.5655 12.3248C8.61367 12.3167 8.65863 12.2975 8.69556 12.2654L9.51281 11.5477C9.54974 11.5156 9.59469 11.4947 9.64286 11.4883L10.7186 11.3293C10.8567 11.31 10.953 11.18 10.9322 11.0419C10.9241 10.9937 10.9049 10.9488 10.8728 10.9118L10.1599 10.0914C10.1278 10.0545 10.1069 10.0095 10.1005 9.96133L9.9415 8.88718C9.92224 8.7491 9.79218 8.65276 9.6541 8.67364C9.60593 8.68166 9.56098 8.70093 9.52405 8.73304L8.70359 9.44593C8.66987 9.48125 8.62491 9.50213 8.57674 9.50855L7.50099 9.6675C7.36291 9.68677 7.26818 9.81522 7.28744 9.9533C7.29547 10.0015 7.31474 10.0464 7.34685 10.0834L8.05974 10.9038C8.09185 10.9407 8.11272 10.9857 8.11915 11.0339V11.0355Z" fill="white"/>
<path d="M16.6401 4.98236L17.2486 5.6808C17.2759 5.7113 17.2936 5.75145 17.3 5.79159L17.4349 6.70838C17.4541 6.82559 17.5633 6.90748 17.6805 6.89142C17.7207 6.885 17.7576 6.86734 17.7913 6.84004L18.4897 6.23152C18.5203 6.20422 18.5604 6.18656 18.6005 6.18014L19.5173 6.04527C19.6329 6.02921 19.7164 5.91843 19.7004 5.79961C19.6939 5.75947 19.6763 5.71933 19.649 5.68883L19.0405 4.99039C19.0132 4.95988 18.9955 4.91974 18.9891 4.8796L18.8542 3.9628C18.8349 3.8456 18.7258 3.76371 18.6086 3.77977C18.5684 3.78619 18.5315 3.80385 18.4978 3.83114L17.7993 4.43967C17.7688 4.46696 17.7287 4.48463 17.6885 4.49105L16.7717 4.62592C16.6545 4.64519 16.5727 4.75437 16.5887 4.87158C16.5951 4.91172 16.6128 4.94864 16.6401 4.98236Z" fill="white"/>
<path d="M7.18469 13.8645L13.6328 28.5654L16.0556 23.7117L11.7623 13.8645H7.18469Z" fill="white"/>
<path d="M21.3605 13.8645L24.5123 20.7558L27.9307 13.8645H21.3605Z" fill="white"/>
</g>
<defs>
<linearGradient id="paint0_linear_6819_9613" x1="-4.97935" y1="33.2618" x2="57.2008" y2="-10.8505" gradientUnits="userSpaceOnUse">
<stop stop-color="#FF836A"/>
<stop offset="0.12" stop-color="#FF766E"/>
<stop offset="0.49" stop-color="#FF527B"/>
<stop offset="0.8" stop-color="#FF3C84"/>
<stop offset="1" stop-color="#FF3487"/>
</linearGradient>
<clipPath id="clip0_6819_9613">
<rect width="105" height="35" fill="white"/>
</clipPath>
</defs>
</svg>
