<svg width="31" height="30" viewBox="0 0 31 30" fill="none" xmlns="http://www.w3.org/2000/svg">
<rect x="0.5" width="30" height="30" rx="15" fill="url(#paint0_linear_6891_1789)"/>
<path d="M23.003 13.3859L21.5865 19.6447C21.5584 19.7757 21.4856 19.8927 21.3805 19.9757C21.2754 20.0588 21.1446 20.1026 21.0107 20.0996H9.97867C9.84477 20.1026 9.71402 20.0588 9.60893 19.9757C9.50384 19.8927 9.43097 19.7757 9.40288 19.6447L8.03251 13.3859C8.00945 13.2802 8.01666 13.17 8.05332 13.0682C8.08999 12.9664 8.15461 12.8769 8.23979 12.8101C8.3252 12.7431 8.42783 12.7016 8.53582 12.6904C8.64381 12.6792 8.75277 12.6987 8.85013 12.7468L12.2127 14.3763L14.9995 9.44753C15.0497 9.35892 15.1226 9.28522 15.2106 9.23394C15.2986 9.18266 15.3986 9.15564 15.5005 9.15564C15.6023 9.15564 15.7023 9.18266 15.7903 9.23394C15.8783 9.28522 15.9512 9.35892 16.0014 9.44753L18.7882 14.382L22.1738 12.741C22.2719 12.6891 22.3829 12.6665 22.4934 12.6761C22.604 12.6858 22.7094 12.7271 22.797 12.7953C22.8846 12.8634 22.9506 12.9554 22.9872 13.0602C23.0237 13.165 23.0292 13.2781 23.003 13.3859Z" fill="white"/>
<defs>
<linearGradient id="paint0_linear_6891_1789" x1="15.5" y1="0" x2="15.5" y2="30" gradientUnits="userSpaceOnUse">
<stop stop-color="#FF836A"/>
<stop offset="1" stop-color="#FF3487"/>
</linearGradient>
</defs>
</svg>
