<svg width="15" height="16" viewBox="0 0 15 16" fill="none" xmlns="http://www.w3.org/2000/svg">
<path d="M14.6428 13.3298L11.1942 9.88092C11.8006 8.91701 12.1217 7.80108 12.1202 6.66228C12.1202 3.3147 9.40646 0.601311 6.05902 0.601311C2.71157 0.601311 -0.00195312 3.3147 -0.00195312 6.66228C-0.00195312 10.01 2.71144 12.7231 6.05902 12.7231C7.29713 12.7247 8.50576 12.3453 9.52088 11.6365L12.9284 15.0443C13.041 15.1569 13.1746 15.2461 13.3217 15.3069C13.4688 15.3677 13.6265 15.3989 13.7856 15.3986C13.9449 15.3989 14.1026 15.3678 14.2497 15.3069C14.3969 15.2461 14.5306 15.1569 14.6432 15.0443C14.8705 14.8169 14.9981 14.5085 14.998 14.187C14.9979 13.8654 14.8702 13.5571 14.6428 13.3298ZM6.05902 10.7595C3.79644 10.7595 1.96209 8.92523 1.96209 6.66253C1.96209 4.39983 3.79644 2.56548 6.05902 2.56548C8.32171 2.56548 10.1559 4.39983 10.1559 6.66253C10.1559 8.92523 8.32171 10.7595 6.05902 10.7595Z" fill="#A1A1A1"/>
</svg>
