<svg width="40" height="40" viewBox="0 0 40 40" fill="none" xmlns="http://www.w3.org/2000/svg">
<circle cx="20" cy="20" r="19.5" fill="#FFEFF0" stroke="#FF5964"/>
<path d="M27.7623 21.2064C27.4514 20.9094 26.9486 20.9094 26.6286 21.2064C26.4731 21.3594 26.3909 21.5574 26.3909 21.7644V24.1315C26.3909 24.4825 26.2446 24.8335 25.9977 25.0765C25.7417 25.3286 25.3943 25.4636 25.0377 25.4636H14.9623C14.6057 25.4636 14.2491 25.3196 14.0023 25.0765C13.7463 24.8335 13.6091 24.4825 13.6091 24.1315V21.7644C13.6091 21.5574 13.5269 21.3594 13.3714 21.2064C13.0697 20.9094 12.5394 20.9094 12.2377 21.2064C12.0823 21.3594 12 21.5574 12 21.7644V24.1315C12 24.9055 12.3109 25.6346 12.8686 26.1926C13.4263 26.7416 14.1669 27.0476 14.9623 27.0476H25.0377C25.824 27.0476 26.5646 26.7416 27.1314 26.1926C27.6891 25.6436 28 24.9145 28 24.1315V21.7644C28 21.5574 27.9177 21.3594 27.7623 21.2064Z" fill="#FF5964"/>
<path d="M16.5806 16.9299C16.8 16.9299 16.992 16.8489 17.1383 16.7049L19.2046 14.6709V21.6384C19.2046 21.8454 19.2869 22.0434 19.4423 22.1964C19.5886 22.3404 19.7989 22.4304 20.0091 22.4304C20.2194 22.4304 20.4297 22.3494 20.576 22.1964C20.7314 22.0434 20.8137 21.8454 20.8137 21.6384V14.6799L22.88 16.7139C23.1634 16.9929 23.6937 17.0019 23.9954 16.7049C24.1417 16.5609 24.2331 16.3539 24.2331 16.1559C24.2331 15.9399 24.1509 15.7419 24.0046 15.5979L20.5669 12.2228C20.2651 11.9257 19.7349 11.9257 19.4331 12.2228L16.0046 15.5979C15.8583 15.7419 15.776 15.9399 15.776 16.1559C15.776 16.3719 15.8583 16.5519 16.0137 16.7049C16.1691 16.8579 16.3611 16.9389 16.5714 16.9389L16.5806 16.9299Z" fill="#FF5964"/>
</svg>
