<svg width="55" height="55" viewBox="0 0 55 55" fill="none" xmlns="http://www.w3.org/2000/svg">
<rect width="55" height="55" rx="27.5" fill="#FF5964" fill-opacity="0.08"/>
<path d="M39.1069 27.5V35.8333C39.1069 36.9822 38.1723 37.9167 37.0235 37.9167H33.4521C32.3033 37.9167 31.3688 36.9822 31.3688 35.8333V27.5C31.3688 26.3512 32.3033 25.4167 33.4521 25.4167H37.0235C38.1723 25.4167 39.1069 26.3512 39.1069 27.5ZM29.8807 36.131H27.4997V33.1548H29.5831V27.5C29.5831 25.3691 31.3211 23.631 33.4521 23.631H36.7259V20.3572C36.7259 18.5476 35.2616 17.0833 33.4521 17.0833H19.1664C17.3569 17.0833 15.8926 18.5476 15.8926 20.3572V29.881C15.8926 31.6905 17.3569 33.1548 19.1664 33.1548H23.9283V36.131H21.5473C21.3105 36.131 21.0834 36.225 20.916 36.3925C20.7486 36.5599 20.6545 36.787 20.6545 37.0238C20.6545 37.2606 20.7486 37.4877 20.916 37.6552C21.0834 37.8226 21.3105 37.9167 21.5473 37.9167H29.8807C30.1175 37.9167 30.3446 37.8226 30.512 37.6552C30.6795 37.4877 30.7735 37.2606 30.7735 37.0238C30.7735 36.787 30.6795 36.5599 30.512 36.3925C30.3446 36.225 30.1175 36.131 29.8807 36.131Z" fill="#FF5964"/>
</svg>
