<svg width="55" height="55" viewBox="0 0 55 55" fill="none" xmlns="http://www.w3.org/2000/svg">
<rect width="55" height="55" rx="27.5" fill="#FF5964" fill-opacity="0.08"/>
<path d="M27.5 28.493C30.5223 28.493 32.9723 26.0429 32.9723 23.0207C32.9723 19.9984 30.5223 17.5483 27.5 17.5483C24.4777 17.5483 22.0277 19.9984 22.0277 23.0207C22.0277 26.0429 24.4777 28.493 27.5 28.493Z" fill="#FF5964"/>
<path d="M31.3536 28.951C30.2437 29.6751 28.9214 30.1001 27.5 30.1001C26.0786 30.1001 24.7562 29.6751 23.6464 28.951C22.5217 29.4113 21.5593 30.1959 20.882 31.205C20.2046 32.214 19.8429 33.4018 19.8429 34.6171V35.4921C19.8416 35.808 19.9506 36.1144 20.1511 36.3586C20.3516 36.6028 20.631 36.7693 20.9411 36.8296C25.2744 37.659 29.7256 37.659 34.0589 36.8296C34.3691 36.7695 34.6486 36.603 34.8491 36.3588C35.0496 36.1146 35.1585 35.808 35.1571 35.4921V34.6171C35.1568 33.4019 34.7949 32.2142 34.1176 31.2053C33.4403 30.1963 32.4781 29.4116 31.3536 28.951ZM33.9393 19.6233C33.8643 19.6233 33.7955 19.6412 33.7214 19.6457C34.2857 20.6813 34.5808 21.8421 34.5795 23.0216C34.58 23.951 34.397 24.8713 34.0409 25.7298C33.6848 26.5883 33.1627 27.3681 32.5045 28.0242C32.9643 28.1928 33.4496 28.2816 33.9393 28.2867C35.0881 28.2867 36.1899 27.8304 37.0023 27.018C37.8146 26.2057 38.271 25.1039 38.271 23.955C38.271 22.8062 37.8146 21.7044 37.0023 20.8921C36.1899 20.0797 35.0881 19.6233 33.9393 19.6233ZM20.4205 23.0207C20.4205 21.7992 20.7312 20.6492 21.2786 19.6448C21.2054 19.6421 21.1357 19.6233 21.0607 19.6233C19.912 19.6233 18.8103 20.0797 17.9981 20.8919C17.1858 21.7042 16.7295 22.8059 16.7295 23.9546C16.7295 25.1033 17.1858 26.205 17.9981 27.0172C18.8103 27.8295 19.912 28.2858 21.0607 28.2858C21.5661 28.2858 22.0446 28.1823 22.4955 28.0233C21.8372 27.3672 21.3151 26.5875 20.959 25.729C20.6029 24.8705 20.4199 23.9501 20.4205 23.0207ZM37.3429 28.8135C36.6532 29.2945 35.8692 29.6235 35.0429 29.7787C36.1543 31.1468 36.7621 32.8553 36.7643 34.618V35.2323C37.5576 35.1507 38.347 35.0351 39.1304 34.8858C39.6375 34.7876 40 34.3421 40 33.826V33.1332C39.9996 32.2379 39.7511 31.3603 39.2821 30.5977C38.813 29.8352 38.1418 29.2176 37.3429 28.8135ZM18.2357 34.6171C18.2357 32.8064 18.8741 31.1216 19.9571 29.7778C19.1306 29.623 18.3466 29.294 17.6571 28.8126C16.8583 29.217 16.1871 29.8348 15.7181 30.5974C15.2491 31.3601 15.0005 32.2378 15 33.1332V33.826C15 34.3421 15.3625 34.7876 15.8696 34.8849C16.5857 35.0224 17.3777 35.1439 18.2357 35.2314V34.6171Z" fill="#FF5964"/>
</svg>
