<svg width="45" height="45" viewBox="0 0 45 45" fill="none" xmlns="http://www.w3.org/2000/svg">
<g filter="url(#filter0_b_7009_1119)">
<rect width="45" height="45" rx="10" fill="white" fill-opacity="0.3"/>
<rect x="0.625" y="0.625" width="43.75" height="43.75" rx="9.375" stroke="white" stroke-opacity="0.1" stroke-width="1.25"/>
<path d="M30.2747 24.8821C29.5343 24.8821 28.9342 25.4822 28.9342 26.2226V28.5207C28.9341 28.5714 28.914 28.62 28.8782 28.6558C28.8424 28.6916 28.7938 28.7118 28.7431 28.7118H25.6792C24.9389 28.7118 24.3387 29.3119 24.3387 30.0523C24.3387 30.7926 24.9388 31.3928 25.6792 31.3928H28.7431C29.5035 31.392 30.1943 31.0954 30.708 30.6127C30.8511 30.4852 30.9776 30.3402 31.0845 30.181C31.4177 29.7121 31.6145 29.1396 31.6152 28.5208V26.2226C31.6152 25.4822 31.015 24.8821 30.2747 24.8821ZM31.0844 14.8188C30.9776 14.6596 30.8511 14.5146 30.708 14.3871C30.1943 13.9043 29.5035 13.6078 28.7431 13.6069H25.6792C24.9389 13.6069 24.3387 14.2071 24.3387 14.9475C24.3387 15.6879 24.9388 16.288 25.6792 16.288H28.7415C28.7922 16.288 28.8408 16.3082 28.8766 16.344C28.9124 16.3798 28.9325 16.4284 28.9325 16.479V18.7772C28.9335 19.5171 29.5331 20.1168 30.2731 20.1177C31.0139 20.1182 31.6148 19.518 31.6152 18.7772V16.479C31.6145 15.8602 31.4177 15.2877 31.0844 14.8188ZM19.5513 13.607H16.4873C15.727 13.6079 15.0362 13.9044 14.5225 14.3871C14.3793 14.5146 14.2528 14.6597 14.146 14.8189C13.8128 15.2877 13.616 15.8603 13.6153 16.4791V18.7773C13.6157 19.5181 14.2166 20.1182 14.9574 20.1178C15.6968 20.116 16.2954 19.5166 16.2963 18.7773V16.4791C16.2963 16.4285 16.3165 16.3799 16.3523 16.344C16.3881 16.3082 16.4367 16.2881 16.4873 16.2881H19.5513C20.2916 16.2881 20.8918 15.6879 20.8918 14.9476C20.8918 14.2072 20.2916 13.607 19.5513 13.607ZM19.5513 28.7118H16.4873C16.4367 28.7118 16.3881 28.6916 16.3523 28.6558C16.3165 28.62 16.2963 28.5714 16.2963 28.5207V26.2226C16.2963 25.4822 15.6962 24.8821 14.9558 24.8821C14.2154 24.8821 13.6152 25.4822 13.6152 26.2226V28.5207C13.6159 29.1396 13.8128 29.7121 14.146 30.1809C14.2528 30.3401 14.3793 30.4852 14.5225 30.6127C15.0362 31.0954 15.727 31.392 16.4873 31.3928H19.5513C20.2916 31.3928 20.8918 30.7926 20.8918 30.0523C20.8918 29.3119 20.2916 28.7118 19.5513 28.7118Z" fill="white"/>
</g>
<defs>
<filter id="filter0_b_7009_1119" x="-5" y="-5" width="55" height="55" filterUnits="userSpaceOnUse" color-interpolation-filters="sRGB">
<feFlood flood-opacity="0" result="BackgroundImageFix"/>
<feGaussianBlur in="BackgroundImageFix" stdDeviation="2.5"/>
<feComposite in2="SourceAlpha" operator="in" result="effect1_backgroundBlur_7009_1119"/>
<feBlend mode="normal" in="SourceGraphic" in2="effect1_backgroundBlur_7009_1119" result="shape"/>
</filter>
</defs>
</svg>
