<svg width="21" height="20" viewBox="0 0 21 20" fill="none" xmlns="http://www.w3.org/2000/svg">
<path d="M20.267 10.2273C20.267 9.5182 20.2034 8.8364 20.0852 8.1818H10.667V12.05H16.0488C15.817 13.3 15.1125 14.3591 14.0534 15.0682V17.5773H17.2852C19.1761 15.8364 20.267 13.2727 20.267 10.2273Z" fill="#4285F4"/>
<path d="M10.6668 20C13.3668 20 15.6307 19.1045 17.2852 17.5773L14.0534 15.0682C13.158 15.6682 12.0122 16.0227 10.6668 16.0227C8.06224 16.0227 5.85774 14.2636 5.07134 11.9H1.73044V14.4909C3.37594 17.7591 6.75774 20 10.6668 20Z" fill="#34A853"/>
<path d="M5.07134 11.9C4.87134 11.3 4.75789 10.6591 4.75789 10C4.75789 9.3409 4.87149 8.7 5.07149 8.1V5.5091H1.73059C1.05339 6.8591 0.666992 8.3864 0.666992 10C0.666992 11.6136 1.05324 13.1409 1.73044 14.4909L5.07134 11.9Z" fill="#FBBC04"/>
<path d="M10.6668 3.9773C12.1349 3.9773 13.4531 4.4818 14.4895 5.4727L17.3577 2.6045C15.6259 0.990899 13.3622 0 10.6668 0C6.75774 0 3.37609 2.24091 1.73059 5.5091L5.07149 8.1C5.85789 5.7364 8.06224 3.9773 10.6668 3.9773Z" fill="#E94235"/>
</svg>
