<svg width="21" height="20" viewBox="0 0 21 20" fill="none" xmlns="http://www.w3.org/2000/svg">
<path d="M10.6703 0.00274658C6.49535 0.00274658 5.27435 0.00705346 5.03701 0.0267421C4.18025 0.0979595 3.64712 0.232857 3.0663 0.522034C2.61869 0.744299 2.26568 1.00194 1.91729 1.36311C1.28279 2.02175 0.898248 2.83206 0.759043 3.79526C0.691364 4.26287 0.671675 4.35824 0.667676 6.74671C0.666138 7.54287 0.667676 8.59067 0.667676 9.9961C0.667676 14.1676 0.67229 15.3874 0.692287 15.6243C0.761504 16.458 0.892249 16.9825 1.16912 17.5562C1.69825 18.6545 2.70883 19.4789 3.89938 19.7866C4.31161 19.8927 4.76691 19.9512 5.35141 19.9788C5.59906 19.9896 8.1232 19.9973 10.6489 19.9973C13.1746 19.9973 15.7002 19.9942 15.9417 19.9819C16.6185 19.9501 17.0115 19.8973 17.4461 19.785C18.0364 19.6336 18.5865 19.3552 19.0581 18.9692C19.5297 18.5832 19.9113 18.0988 20.1763 17.5501C20.4478 16.9902 20.5855 16.4457 20.6478 15.6555C20.6613 15.4832 20.667 12.7365 20.667 9.99348C20.667 7.25 20.6608 4.50836 20.6473 4.33609C20.5842 3.53316 20.4466 2.99326 20.1663 2.4226C19.9364 1.95546 19.681 1.6066 19.3103 1.2499C18.6489 0.618016 17.8398 0.233472 16.8756 0.0944217C16.4084 0.0268959 16.3153 0.00689965 13.925 0.00274658H10.6703Z" fill="url(#paint0_radial_6986_1861)"/>
<path d="M10.6703 0.00274658C6.49535 0.00274658 5.27435 0.00705346 5.03701 0.0267421C4.18025 0.0979595 3.64712 0.232857 3.0663 0.522034C2.61869 0.744299 2.26568 1.00194 1.91729 1.36311C1.28279 2.02175 0.898248 2.83206 0.759043 3.79526C0.691364 4.26287 0.671675 4.35824 0.667676 6.74671C0.666138 7.54287 0.667676 8.59067 0.667676 9.9961C0.667676 14.1676 0.67229 15.3874 0.692287 15.6243C0.761504 16.458 0.892249 16.9825 1.16912 17.5562C1.69825 18.6545 2.70883 19.4789 3.89938 19.7866C4.31161 19.8927 4.76691 19.9512 5.35141 19.9788C5.59906 19.9896 8.1232 19.9973 10.6489 19.9973C13.1746 19.9973 15.7002 19.9942 15.9417 19.9819C16.6185 19.9501 17.0115 19.8973 17.4461 19.785C18.0364 19.6336 18.5865 19.3552 19.0581 18.9692C19.5297 18.5832 19.9113 18.0988 20.1763 17.5501C20.4478 16.9902 20.5855 16.4457 20.6478 15.6555C20.6613 15.4832 20.667 12.7365 20.667 9.99348C20.667 7.25 20.6608 4.50836 20.6473 4.33609C20.5842 3.53316 20.4466 2.99326 20.1663 2.4226C19.9364 1.95546 19.681 1.6066 19.3103 1.2499C18.6489 0.618016 17.8398 0.233472 16.8756 0.0944217C16.4084 0.0268959 16.3153 0.00689965 13.925 0.00274658H10.6703Z" fill="url(#paint1_radial_6986_1861)"/>
<path d="M10.6662 2.6176C8.66101 2.6176 8.40937 2.62637 7.62182 2.66221C6.83582 2.6982 6.2993 2.82264 5.82985 3.00522C5.34425 3.1938 4.93233 3.44606 4.52195 3.8566C4.11125 4.26699 3.85899 4.67891 3.6698 5.16436C3.48676 5.63396 3.36216 6.17063 3.32679 6.95633C3.29172 7.74387 3.28249 7.99567 3.28249 10.0008C3.28249 12.006 3.29141 12.2569 3.32709 13.0444C3.36324 13.8304 3.48768 14.3669 3.67011 14.8364C3.85884 15.322 4.1111 15.7339 4.52164 16.1443C4.93187 16.555 5.34379 16.8079 5.82908 16.9964C6.29884 17.179 6.83551 17.3035 7.62136 17.3395C8.40891 17.3753 8.6604 17.3841 10.6654 17.3841C12.6707 17.3841 12.9216 17.3753 13.7091 17.3395C14.4951 17.3035 15.0323 17.179 15.502 16.9964C15.9875 16.8079 16.3988 16.555 16.809 16.1443C17.2197 15.7339 17.472 15.322 17.6612 14.8365C17.8427 14.3669 17.9673 13.8303 18.0042 13.0446C18.0396 12.257 18.0488 12.006 18.0488 10.0008C18.0488 7.99567 18.0396 7.74402 18.0042 6.95648C17.9673 6.17047 17.8427 5.63396 17.6612 5.16451C17.472 4.67891 17.2197 4.26699 16.809 3.8566C16.3983 3.44591 15.9876 3.19365 15.5016 3.00522C15.0309 2.82264 14.4941 2.6982 13.7081 2.66221C12.9205 2.62637 12.6698 2.6176 10.664 2.6176H10.6662ZM10.0038 3.94812C10.2004 3.94781 10.4198 3.94812 10.6662 3.94812C12.6375 3.94812 12.8711 3.9552 13.6496 3.99058C14.3695 4.02349 14.7602 4.14378 15.0204 4.24484C15.365 4.37866 15.6106 4.53863 15.8689 4.79704C16.1273 5.05545 16.2873 5.30156 16.4214 5.64611C16.5225 5.90606 16.6429 6.29676 16.6757 7.01662C16.711 7.79494 16.7187 8.02874 16.7187 9.99914C16.7187 11.9695 16.711 12.2033 16.6757 12.9817C16.6427 13.7015 16.5225 14.0922 16.4214 14.3522C16.2876 14.6967 16.1273 14.9421 15.8689 15.2003C15.6105 15.4587 15.3651 15.6187 15.0204 15.7525C14.7605 15.854 14.3695 15.974 13.6496 16.0069C12.8713 16.0423 12.6375 16.05 10.6662 16.05C8.6947 16.05 8.46105 16.0423 7.68274 16.0069C6.96287 15.9737 6.57218 15.8534 6.31176 15.7524C5.96721 15.6185 5.7211 15.4586 5.46269 15.2002C5.20428 14.9417 5.04431 14.6963 4.91018 14.3516C4.80912 14.0916 4.68868 13.7009 4.65592 12.981C4.62054 12.2027 4.61347 11.9689 4.61347 9.99729C4.61347 8.02566 4.62054 7.79309 4.65592 7.01478C4.68884 6.29491 4.80912 5.90422 4.91018 5.64396C5.044 5.29941 5.20428 5.0533 5.46269 4.79489C5.7211 4.53647 5.96721 4.3765 6.31176 4.24237C6.57202 4.14086 6.96287 4.02088 7.68274 3.98781C8.36384 3.95704 8.62779 3.94781 10.0038 3.94628V3.94812ZM14.6073 5.17405C14.432 5.17405 14.2607 5.22602 14.115 5.32338C13.9693 5.42075 13.8558 5.55914 13.7887 5.72105C13.7217 5.88296 13.7041 6.06112 13.7383 6.23299C13.7725 6.40487 13.857 6.56273 13.9809 6.68663C14.1048 6.81052 14.2627 6.89488 14.4346 6.92903C14.6065 6.96319 14.7847 6.9456 14.9465 6.87849C15.1084 6.81139 15.2468 6.69778 15.3441 6.55204C15.4414 6.4063 15.4933 6.23497 15.4933 6.05973C15.4933 5.57059 15.0964 5.17405 14.6073 5.17405ZM10.6662 6.20924C8.57226 6.20924 6.87458 7.90692 6.87458 10.0008C6.87458 12.0947 8.57226 13.7917 10.6662 13.7917C12.7601 13.7917 14.4573 12.0947 14.4573 10.0008C14.4573 7.90692 12.7601 6.20924 10.6662 6.20924ZM10.6662 7.53975C12.0253 7.53975 13.1272 8.64155 13.1272 10.0008C13.1272 11.36 12.0253 12.4619 10.6662 12.4619C9.30689 12.4619 8.2051 11.36 8.2051 10.0008C8.2051 8.64155 9.30689 7.53975 10.6662 7.53975Z" fill="white"/>
<defs>
<radialGradient id="paint0_radial_6986_1861" cx="0" cy="0" r="1" gradientUnits="userSpaceOnUse" gradientTransform="translate(5.97952 21.5373) rotate(-90) scale(19.8161 18.4355)">
<stop stop-color="#FFDD55"/>
<stop offset="0.1" stop-color="#FFDD55"/>
<stop offset="0.5" stop-color="#FF543E"/>
<stop offset="1" stop-color="#C837AB"/>
</radialGradient>
<radialGradient id="paint1_radial_6986_1861" cx="0" cy="0" r="1" gradientUnits="userSpaceOnUse" gradientTransform="translate(-2.68311 1.44312) rotate(78.6776) scale(8.85796 36.5221)">
<stop stop-color="#3771C8"/>
<stop offset="0.128" stop-color="#3771C8"/>
<stop offset="1" stop-color="#6600FF" stop-opacity="0"/>
</radialGradient>
</defs>
</svg>
