<svg width="20" height="20" viewBox="0 0 20 20" fill="none" xmlns="http://www.w3.org/2000/svg">
<path d="M16.5219 16.6885H13.7067V12.2797C13.7067 11.2284 13.6879 9.87508 12.2425 9.87508C10.7762 9.87508 10.5519 11.0205 10.5519 12.2032V16.6882H7.73671V7.62204H10.4393V8.86102H10.4771C10.7476 8.39858 11.1384 8.01815 11.608 7.76026C12.0776 7.50236 12.6083 7.37666 13.1437 7.39653C15.997 7.39653 16.5231 9.27333 16.5231 11.7149L16.5219 16.6885ZM4.56021 6.38276C4.2371 6.38282 3.92122 6.28706 3.65253 6.1076C3.38384 5.92813 3.1744 5.67302 3.05069 5.37453C2.92699 5.07603 2.89458 4.74755 2.95756 4.43063C3.02054 4.11372 3.17608 3.82259 3.40451 3.59407C3.63295 3.36555 3.92402 3.20991 4.24092 3.14681C4.55781 3.08372 4.8863 3.11601 5.18484 3.23961C5.48338 3.36321 5.73857 3.57256 5.91813 3.84119C6.09769 4.10981 6.19356 4.42566 6.19362 4.74877C6.19366 4.96331 6.15144 5.17576 6.06938 5.37398C5.98731 5.57221 5.867 5.75233 5.71533 5.90406C5.56365 6.05579 5.38358 6.17616 5.18538 6.25829C4.98719 6.34043 4.77476 6.38273 4.56021 6.38276ZM5.96782 16.6885H3.14968V7.62204H5.96782V16.6885ZM17.9254 0.501037H1.73504C1.36756 0.496891 1.01347 0.638805 0.750579 0.895596C0.487684 1.15239 0.337493 1.50305 0.333008 1.87052V18.128C0.337339 18.4957 0.487435 18.8466 0.75032 19.1036C1.01321 19.3607 1.36738 19.5029 1.73504 19.499H17.9254C18.2938 19.5036 18.649 19.3618 18.9129 19.1048C19.1768 18.8477 19.3279 18.4964 19.333 18.128V1.86934C19.3278 1.50114 19.1766 1.15009 18.9126 0.893303C18.6487 0.636518 18.2936 0.496181 17.9254 0.501037Z" fill="#0A66C2"/>
</svg>
