<svg width="19" height="18" viewBox="0 0 19 18" fill="none" xmlns="http://www.w3.org/2000/svg">
<path d="M13.8424 14.4294H12.1973L4.625 3.59802H6.27008L13.8424 14.4294Z" fill="black"/>
<path d="M16.2208 0.09375H2.25769C1.19474 0.09375 0.333008 0.955486 0.333008 2.01843V15.9816C0.333008 17.0445 1.19474 17.9062 2.25769 17.9062H16.2208C17.2838 17.9062 18.1455 17.0445 18.1455 15.9816V2.01843C18.1455 0.955486 17.2838 0.09375 16.2208 0.09375ZM11.6944 15.1991L8.38434 10.3817L4.24014 15.1991H3.16907L7.90876 9.68985L3.16907 2.79176H6.78412L9.91851 7.35347L13.8428 2.79176H14.9139L10.3942 8.0455L15.3094 15.1991H11.6944Z" fill="black"/>
</svg>
