<svg width="15" height="20" viewBox="0 0 15 20" fill="none" xmlns="http://www.w3.org/2000/svg">
<path d="M2.51861 0.910804C3.53486 0.117054 5.48861 -0.109196 6.29236 0.0458039C7.09736 0.199554 7.51736 0.645804 7.52236 1.1908L7.56861 8.12455C7.57236 8.66955 7.28736 9.16955 6.93486 9.23705C6.58111 9.3033 6.05986 8.97955 5.77236 8.5158L2.10611 2.56955C1.82236 2.1058 1.24986 1.9008 2.51861 0.910804ZM1.30111 14.0983L4.99236 12.8021C5.50611 12.6208 5.96736 12.1171 6.01861 11.6796C6.06861 11.2421 5.69486 10.7221 5.18736 10.5233L1.28861 8.98955C0.781111 8.78955 0.194861 9.26205 0.0411111 10.0346C0.0411111 10.0346 -0.0513889 12.7258 0.0411111 13.2821C0.134861 13.8396 0.786111 14.2808 1.30111 14.0983ZM7.73986 14.7471C7.74986 14.2008 7.45736 13.7296 7.08736 13.6958C6.71736 13.6621 6.12986 13.9746 5.77861 14.3908L3.20361 17.4558C2.85361 17.8721 3.02736 18.8496 3.53861 19.0358L6.23111 19.9633C6.74361 20.1483 7.64611 19.6008 7.65611 19.0558L7.73986 14.7471ZM14.1386 14.0333L10.9099 13.1121C10.3861 12.9621 9.79236 12.9771 9.59111 13.1458C9.38986 13.3121 9.43986 13.8408 9.70361 14.3183L11.7411 18.0196C12.0036 18.4958 13.0586 18.4146 13.3486 17.9521C13.3486 17.9521 14.5761 16.1546 14.8024 15.4796C15.0286 14.8033 14.6624 14.1821 14.1386 14.0333ZM14.9249 8.8283C14.7799 8.35955 13.7699 6.97955 13.2236 6.50955C12.6774 6.0383 12.0524 6.09705 11.7011 6.5108L9.61986 8.97205C9.26736 9.3858 9.17236 10.0433 9.40736 10.4283C9.64236 10.8146 10.2686 11.0333 10.8011 10.9146L14.3999 10.2521C15.0499 10.0971 15.0736 9.29705 14.9249 8.8283Z" fill="#F44336"/>
</svg>
