<svg width="23" height="16" viewBox="0 0 23 16" fill="none" xmlns="http://www.w3.org/2000/svg">
<path d="M22.235 2.49841C21.9738 1.51499 21.2044 0.740513 20.2272 0.477675C18.4563 0 11.3548 0 11.3548 0C11.3548 0 4.25331 0 2.48234 0.477675C1.50512 0.740513 0.735481 1.51499 0.474482 2.49841C0 4.28089 0 8 0 8C0 8 0 11.7189 0.474482 13.5016C0.735481 14.4851 1.50512 15.2594 2.48225 15.5225C4.25321 16 11.3547 16 11.3547 16C11.3547 16 18.4562 16 20.2271 15.5225C21.2043 15.2595 21.9737 14.4851 22.2349 13.5017C22.7095 11.719 22.7095 8.0001 22.7095 8.0001C22.7095 8.0001 22.7095 4.28098 22.2349 2.49851" fill="#FF0000"/>
<path d="M9.03219 11.3766L14.9676 8.00019L9.03219 4.62337V11.3766Z" fill="white"/>
</svg>
