<svg width="16" height="16" viewBox="0 0 16 16" fill="none" xmlns="http://www.w3.org/2000/svg">
<path d="M15.1748 11.9429C14.7066 11.5502 11.9605 9.81125 11.5041 9.89107C11.2898 9.92911 11.1259 10.1118 10.6871 10.6352C10.4842 10.8928 10.2614 11.1341 10.0207 11.3568C9.57971 11.2503 9.15282 11.092 8.74893 10.8854C7.16497 10.1142 5.88534 8.83418 5.11464 7.25C4.90798 6.84611 4.74975 6.41922 4.64321 5.97821C4.86593 5.73752 5.1072 5.51469 5.36482 5.31179C5.88768 4.87304 6.07089 4.71018 6.10893 4.49482C6.18875 4.03732 4.44821 1.29232 4.05714 0.824107C3.89321 0.630179 3.74429 0.5 3.55357 0.5C3.00071 0.5 0.5 3.59214 0.5 3.99286C0.5 4.02554 0.553571 7.24464 4.61911 11.3809C8.75536 15.4464 11.9745 15.5 12.0071 15.5C12.4079 15.5 15.5 12.9993 15.5 12.4464C15.5 12.2557 15.3698 12.1068 15.1748 11.9429ZM11.75 7.46429H12.8214C12.8202 6.32804 12.3682 5.23869 11.5648 4.43524C10.7613 3.63179 9.67196 3.17985 8.53571 3.17857V4.25C9.38793 4.25085 10.205 4.58977 10.8076 5.19238C11.4102 5.79499 11.7491 6.61207 11.75 7.46429Z" fill="#A1A1A1"/>
<path d="M14.4286 7.46429H15.5C15.4979 5.6179 14.7635 3.84774 13.4579 2.54214C12.1523 1.23654 10.3821 0.502127 8.53571 0.5V1.57143C10.098 1.57327 11.5958 2.19472 12.7006 3.29944C13.8053 4.40417 14.4267 5.90197 14.4286 7.46429Z" fill="#A1A1A1"/>
</svg>
