<svg width="18" height="15" viewBox="0 0 18 15" fill="none" xmlns="http://www.w3.org/2000/svg">
<path d="M4.67516 7.211C5.63212 7.211 6.4046 6.43852 6.4046 5.48156C6.4046 4.52461 5.63212 3.75212 4.67516 3.75212C3.7182 3.75212 2.94572 4.52461 2.94572 5.48156C2.94572 6.43852 3.7182 7.211 4.67516 7.211Z" fill="#A1A1A1"/>
<path d="M2.51913 0.00500488C1.94265 0.00500488 1.40076 0.235597 0.98569 0.639132C0.582154 1.04267 0.351562 1.59609 0.351562 2.17257V12.8374C0.351562 14.025 1.32005 15.005 2.51913 15.005H15.4899C16.6775 15.005 17.6575 14.0365 17.6575 12.8374V2.17257C17.6575 0.98502 16.689 0.00500488 15.4899 0.00500488H2.51913ZM2.51913 1.73444H15.4899C15.6052 1.73444 15.709 1.78056 15.8012 1.86127C15.8819 1.94198 15.928 2.05727 15.928 2.17257V9.45927L13.1955 6.2771C13.0456 6.11569 12.8727 5.97733 12.6767 5.8851C12.4807 5.79286 12.2616 5.74674 12.0426 5.74674C11.8235 5.74674 11.6044 5.79286 11.4084 5.89663C11.2124 5.98886 11.028 6.12722 10.8896 6.30016L7.67285 10.151L6.62366 9.10185C6.33542 8.81361 5.95494 8.66373 5.55141 8.66373C5.14787 8.66373 4.7674 8.82514 4.47916 9.10185L2.09253 11.4885V2.17257C2.09253 2.05727 2.13865 1.95351 2.21936 1.86127C2.30006 1.78056 2.41536 1.73444 2.53066 1.73444H2.51913Z" fill="#A1A1A1"/>
</svg>
