<svg width="16" height="16" viewBox="0 0 16 16" fill="none" xmlns="http://www.w3.org/2000/svg">
<path d="M3.93749 7.37501C1.10671 7.37501 0.5 6.7683 0.5 3.93749C0.5 1.10671 1.10671 0.5 3.93749 0.5C6.7683 0.5 7.37498 1.10671 7.37498 3.93749C7.37501 6.7683 6.7683 7.37501 3.93749 7.37501ZM3.93749 15.5C1.10671 15.5 0.5 14.8933 0.5 12.0625C0.5 9.2317 1.10671 8.62502 3.93749 8.62502C6.7683 8.62502 7.37498 9.2317 7.37498 12.0625C7.37501 14.8933 6.7683 15.5 3.93749 15.5ZM8.62499 12.0625C8.62499 14.8933 9.2317 15.5 12.0625 15.5C14.8933 15.5 15.5 14.8933 15.5 12.0625C15.5 9.2317 14.8933 8.62502 12.0625 8.62502C9.2317 8.62502 8.62499 9.2317 8.62499 12.0625ZM12.6875 1.75001C12.6875 1.40483 12.4077 1.12502 12.0625 1.12502C11.7173 1.12502 11.4375 1.40483 11.4375 1.75001V3.3125H9.875C9.52982 3.3125 9.25001 3.59231 9.25001 3.93749C9.25001 4.28267 9.52982 4.56248 9.875 4.56248H11.4375V6.125C11.4375 6.47018 11.7173 6.74999 12.0625 6.74999C12.4077 6.74999 12.6875 6.47018 12.6875 6.125V4.56251H14.25C14.5951 4.56251 14.875 4.2827 14.875 3.93752C14.875 3.59234 14.5952 3.3125 14.25 3.3125H12.6875V1.75001Z" fill="#A1A1A1"/>
</svg>
