<svg width="16" height="16" viewBox="0 0 16 16" fill="none" xmlns="http://www.w3.org/2000/svg">
<path d="M15.1749 7.29424C15.3199 7.15394 15.4224 6.97564 15.4708 6.77976C15.5191 6.58388 15.5113 6.37834 15.4482 6.18669C15.3866 5.99449 15.2721 5.82355 15.1178 5.69345C14.9634 5.56336 14.7756 5.47938 14.5757 5.45115L10.9276 4.92106C10.851 4.90994 10.7784 4.88037 10.7158 4.83491C10.6533 4.78944 10.6027 4.72944 10.5685 4.66009L8.93753 1.35465C8.84888 1.17337 8.71096 1.02074 8.53957 0.914235C8.36818 0.807729 8.17025 0.75166 7.96846 0.75245C7.76673 0.751716 7.56887 0.807813 7.39753 0.914315C7.2262 1.02082 7.08833 1.17342 6.9997 1.35465L5.3684 4.66039C5.29901 4.80128 5.16445 4.89873 5.00908 4.92136L1.3609 5.45145C1.16105 5.47968 0.973193 5.56366 0.818872 5.69375C0.664552 5.82385 0.550012 5.99479 0.488383 6.187C0.425322 6.37864 0.417516 6.58418 0.465858 6.78006C0.514201 6.97594 0.616738 7.15424 0.761724 7.29454L3.40131 9.86745C3.51384 9.97727 3.56543 10.1354 3.53888 10.2898L2.91617 13.9229C2.888 14.0773 2.89453 14.236 2.93528 14.3875C2.97604 14.5391 3.05 14.6796 3.1518 14.7991C3.47342 15.1813 4.03488 15.2978 4.48381 15.0618L7.74641 13.3464C7.81517 13.3113 7.89127 13.293 7.96846 13.293C8.04566 13.293 8.12176 13.3113 8.19052 13.3464L11.4534 15.0618C11.6081 15.1444 11.7807 15.1876 11.956 15.1877C12.2749 15.1877 12.5773 15.0459 12.7851 14.7991C12.8869 14.6797 12.9609 14.5391 13.0017 14.3875C13.0424 14.236 13.0489 14.0773 13.0208 13.9229L12.3977 10.2898C12.3847 10.2135 12.3904 10.1352 12.4144 10.0617C12.4384 9.98808 12.4799 9.92143 12.5353 9.86745L15.1749 7.29424Z" fill="#A1A1A1"/>
</svg>
