<svg width="16" height="12" viewBox="0 0 16 12" fill="none" xmlns="http://www.w3.org/2000/svg">
<path d="M13.7371 0.733902H5.79312C5.07956 0.733902 4.49901 1.31445 4.49901 2.02889C4.49901 2.74245 5.07956 3.323 5.79312 3.323H13.7371C14.4507 3.323 15.0312 2.74245 15.0312 2.02889C15.0312 1.31442 14.4507 0.733902 13.7371 0.733902ZM2.26332 0.733902C1.54951 0.733902 0.96875 1.31464 0.96875 2.02845C0.96875 2.74226 1.54951 3.323 2.26332 3.323C2.97713 3.323 3.55787 2.74226 3.55787 2.02845C3.55787 1.31464 2.97713 0.733902 2.26332 0.733902ZM2.26332 4.70546C1.54951 4.70546 0.96875 5.2862 0.96875 6.00001C0.96875 6.71382 1.54951 7.29455 2.26332 7.29455C2.97713 7.29455 3.55787 6.71382 3.55787 6.00001C3.55787 5.2862 2.97713 4.70546 2.26332 4.70546ZM2.26332 8.67702C1.54951 8.67702 0.96875 9.25776 0.96875 9.97157C0.96875 10.6854 1.54951 11.2661 2.26332 11.2661C2.97713 11.2661 3.55787 10.6854 3.55787 9.97157C3.55787 9.25776 2.97713 8.67702 2.26332 8.67702ZM13.7371 4.70546H5.79312C5.07956 4.70546 4.49901 5.28601 4.49901 6.00045C4.49901 6.71401 5.07956 7.29455 5.79312 7.29455H13.7371C14.4507 7.29455 15.0312 6.71401 15.0312 6.00045C15.0312 5.28598 14.4507 4.70546 13.7371 4.70546ZM13.7371 8.67702H5.79312C5.07956 8.67702 4.49901 9.25756 4.49901 9.972C4.49901 10.6856 5.07956 11.2661 5.79312 11.2661H13.7371C14.4507 11.2661 15.0312 10.6856 15.0312 9.972C15.0312 9.25756 14.4507 8.67702 13.7371 8.67702Z" fill="url(#paint0_linear_6969_2168)"/>
<defs>
<linearGradient id="paint0_linear_6969_2168" x1="7.99999" y1="0.733902" x2="7.99999" y2="11.2661" gradientUnits="userSpaceOnUse">
<stop stop-color="#FF836A"/>
<stop offset="1" stop-color="#FF3487"/>
</linearGradient>
</defs>
</svg>
