<svg width="17" height="16" viewBox="0 0 17 16" fill="none" xmlns="http://www.w3.org/2000/svg">
<path d="M15.5993 2.77681H12.2511V2.10715C12.2511 1.36852 11.6505 0.767853 10.9118 0.767853H6.89397C6.15535 0.767853 5.55468 1.36849 5.55468 2.10715V2.77678H2.20648C1.46783 2.77681 0.867188 3.37745 0.867188 4.11608V6.12501C0.867188 6.86366 1.46783 7.4643 2.20648 7.4643H7.56364V7.12947C7.56361 7.08549 7.57225 7.04194 7.58907 7.0013C7.60588 6.96067 7.63054 6.92374 7.66164 6.89264C7.69274 6.86155 7.72966 6.83688 7.7703 6.82007C7.81094 6.80325 7.85449 6.79461 7.89847 6.79464H9.9074C9.95138 6.79461 9.99493 6.80325 10.0356 6.82007C10.0762 6.83688 10.1131 6.86155 10.1442 6.89264C10.1753 6.92374 10.2 6.96067 10.2168 7.0013C10.2336 7.04194 10.2423 7.08549 10.2422 7.12947V7.4643H15.5994C16.338 7.4643 16.9386 6.86366 16.9386 6.12501V4.11608C16.9386 3.37745 16.338 2.77681 15.5993 2.77681ZM10.9118 2.77681H6.89397V2.10715H10.9118V2.77681ZM16.7529 7.8256C16.6971 7.79792 16.6346 7.78635 16.5726 7.79218C16.5106 7.79802 16.4514 7.82102 16.4017 7.85862C16.1637 8.03879 15.8864 8.13393 15.5993 8.13393H10.2422V9.1384C10.2422 9.18238 10.2336 9.22593 10.2168 9.26657C10.2 9.3072 10.1753 9.34413 10.1442 9.37522C10.1131 9.40632 10.0762 9.43099 10.0355 9.4478C9.9949 9.46462 9.95134 9.47326 9.90737 9.47323H7.89844C7.85446 9.47326 7.81091 9.46462 7.77027 9.4478C7.72963 9.43099 7.69271 9.40632 7.66161 9.37522C7.63051 9.34413 7.60585 9.3072 7.58903 9.26657C7.57222 9.22593 7.56358 9.18238 7.56361 9.1384V8.13393H2.20648C1.9194 8.13393 1.64213 8.03879 1.40407 7.85862C1.35453 7.82073 1.29532 7.79754 1.23322 7.7917C1.17112 7.78586 1.10863 7.79761 1.05289 7.8256C0.997096 7.85335 0.950156 7.89611 0.917349 7.94909C0.884542 8.00207 0.86717 8.06315 0.867188 8.12546V13.8929C0.867188 14.6315 1.46783 15.2322 2.20648 15.2322H15.5994C16.338 15.2322 16.9386 14.6315 16.9386 13.8929V8.12546C16.9387 8.06314 16.9213 8.00206 16.8884 7.94908C16.8556 7.89611 16.8087 7.85334 16.7529 7.8256Z" fill="url(#paint0_linear_6969_2432)"/>
<defs>
<linearGradient id="paint0_linear_6969_2432" x1="8.90292" y1="0.767853" x2="8.90292" y2="15.2322" gradientUnits="userSpaceOnUse">
<stop stop-color="#FF836A"/>
<stop offset="1" stop-color="#FF3487"/>
</linearGradient>
</defs>
</svg>
