<svg width="16" height="16" viewBox="0 0 16 16" fill="none" xmlns="http://www.w3.org/2000/svg">
<path d="M3.93554 7.37501C1.10476 7.37501 0.498047 6.7683 0.498047 3.93749C0.498047 1.10671 1.10476 0.5 3.93554 0.5C6.76635 0.5 7.37303 1.10671 7.37303 3.93749C7.37306 6.7683 6.76635 7.37501 3.93554 7.37501ZM3.93554 15.5C1.10476 15.5 0.498047 14.8933 0.498047 12.0625C0.498047 9.2317 1.10476 8.62502 3.93554 8.62502C6.76635 8.62502 7.37303 9.2317 7.37303 12.0625C7.37306 14.8933 6.76635 15.5 3.93554 15.5ZM8.62304 12.0625C8.62304 14.8933 9.22975 15.5 12.0606 15.5C14.8914 15.5 15.498 14.8933 15.498 12.0625C15.498 9.2317 14.8914 8.62502 12.0606 8.62502C9.22975 8.62502 8.62304 9.2317 8.62304 12.0625ZM12.6855 1.75001C12.6855 1.40483 12.4057 1.12502 12.0606 1.12502C11.7154 1.12502 11.4356 1.40483 11.4356 1.75001V3.3125H9.87305C9.52787 3.3125 9.24806 3.59231 9.24806 3.93749C9.24806 4.28267 9.52787 4.56248 9.87305 4.56248H11.4355V6.125C11.4355 6.47018 11.7154 6.74999 12.0605 6.74999C12.4057 6.74999 12.6855 6.47018 12.6855 6.125V4.56251H14.248C14.5932 4.56251 14.873 4.2827 14.873 3.93752C14.873 3.59234 14.5932 3.3125 14.248 3.3125H12.6855V1.75001Z" fill="url(#paint0_linear_7032_1210)"/>
<defs>
<linearGradient id="paint0_linear_7032_1210" x1="7.99805" y1="0.5" x2="7.99805" y2="15.5" gradientUnits="userSpaceOnUse">
<stop stop-color="#FF836A"/>
<stop offset="1" stop-color="#FF3487"/>
</linearGradient>
</defs>
</svg>
