<svg width="16" height="16" viewBox="0 0 16 16" fill="none" xmlns="http://www.w3.org/2000/svg">
<path d="M15.1739 7.29424C15.3189 7.15394 15.4214 6.97564 15.4698 6.77976C15.5181 6.58388 15.5103 6.37834 15.4473 6.18669C15.3856 5.99449 15.2711 5.82355 15.1168 5.69345C14.9625 5.56336 14.7746 5.47938 14.5747 5.45115L10.9266 4.92106C10.8501 4.90994 10.7774 4.88037 10.7148 4.83491C10.6523 4.78944 10.6017 4.72944 10.5675 4.66009L8.93655 1.35465C8.8479 1.17337 8.70998 1.02074 8.53859 0.914235C8.3672 0.807729 8.16927 0.75166 7.96749 0.75245C7.76575 0.751716 7.56789 0.807813 7.39656 0.914315C7.22522 1.02082 7.08735 1.17342 6.99872 1.35465L5.36742 4.66039C5.29803 4.80128 5.16348 4.89873 5.0081 4.92136L1.35993 5.45145C1.16007 5.47968 0.972216 5.56366 0.817896 5.69375C0.663575 5.82385 0.549035 5.99479 0.487406 6.187C0.424345 6.37864 0.416539 6.58418 0.464882 6.78006C0.513225 6.97594 0.615762 7.15424 0.760748 7.29454L3.40033 9.86745C3.51287 9.97727 3.56446 10.1354 3.53791 10.2898L2.9152 13.9229C2.88702 14.0773 2.89355 14.236 2.93431 14.3875C2.97506 14.5391 3.04902 14.6796 3.15083 14.7991C3.47244 15.1813 4.03391 15.2978 4.48284 15.0618L7.74544 13.3464C7.81419 13.3113 7.89029 13.293 7.96749 13.293C8.04468 13.293 8.12078 13.3113 8.18954 13.3464L11.4524 15.0618C11.6071 15.1444 11.7797 15.1876 11.9551 15.1877C12.274 15.1877 12.5763 15.0459 12.7841 14.7991C12.886 14.6797 12.9599 14.5391 13.0007 14.3875C13.0415 14.236 13.048 14.0773 13.0198 13.9229L12.3968 10.2898C12.3837 10.2135 12.3895 10.1352 12.4134 10.0617C12.4374 9.98808 12.4789 9.92143 12.5343 9.86745L15.1739 7.29424Z" fill="url(#paint0_linear_7045_1461)"/>
<defs>
<linearGradient id="paint0_linear_7045_1461" x1="7.96734" y1="0.752441" x2="7.96734" y2="15.1877" gradientUnits="userSpaceOnUse">
<stop stop-color="#FF836A"/>
<stop offset="1" stop-color="#FF3487"/>
</linearGradient>
</defs>
</svg>
